SouffletVert-Hybrid106R.ufo
<glyph name="parenleft" format="1">
  <advance width="297"/>
  <unicode hex="0028"/>
  <outline>
    <contour>
      <point x="42" y="283" type="curve"/>
      <point x="42" y="422"/>
      <point x="113" y="546"/>
      <point x="237" y="634" type="curve"/>
      <point x="255" y="618" type="line"/>
      <point x="154" y="525"/>
      <point x="86" y="420"/>
      <point x="86" y="289" type="curve"/>
      <point x="86" y="155"/>
      <point x="148" y="54"/>
      <point x="255" y="-46" type="curve"/>
      <point x="239" y="-63" type="line"/>
      <point x="112" y="27"/>
      <point x="42" y="144"/>
    </contour>
  </outline>
</glyph>
<glyph name="hyphen" format="1">
  <advance width="310"/>
  <unicode hex="002D"/>
  <outline>
    <contour>
      <point x="286" y="222" type="line"/>
      <point x="36" y="156" type="line"/>
      <point x="20" y="125" type="line"/>
      <point x="25" y="119" type="line"/>
      <point x="271" y="170" type="line"/>
      <point x="290" y="217" type="line"/>
    </contour>
    <contour>
      <point x="284" y="382" type="line"/>
      <point x="36" y="297" type="line"/>
      <point x="24" y="265" type="line"/>
      <point x="29" y="259" type="line"/>
      <point x="271" y="329" type="line"/>
      <point x="288" y="377" type="line"/>
    </contour>
  </outline>
</glyph>
<glyph name="period" format="1">
  <advance width="169"/>
  <unicode hex="002E"/>
  <outline>
    <contour>
      <point x="7" y="67" type="curve"/>
      <point x="7" y="52" type="line"/>
      <point x="50" y="42"/>
      <point x="67" y="23"/>
      <point x="77" y="-19" type="curve"/>
      <point x="94" y="-19" type="line"/>
      <point x="103" y="23"/>
      <point x="121" y="42"/>
      <point x="163" y="52" type="curve"/>
      <point x="163" y="69" type="line"/>
      <point x="121" y="80"/>
      <point x="104" y="98"/>
      <point x="94" y="140" type="curve"/>
      <point x="77" y="140" type="line"/>
      <point x="67" y="98"/>
      <point x="49" y="77"/>
    </contour>
  </outline>
</glyph>
<glyph name="slash" format="1">
  <advance width="204"/>
  <unicode hex="002F"/>
  <outline>
    <contour>
      <point x="195" y="471" type="curve"/>
      <point x="168" y="472" type="line"/>
      <point x="113" y="304"/>
      <point x="58" y="154"/>
      <point x="6" y="12" type="curve"/>
      <point x="11" y="0" type="line"/>
      <point x="79" y="10" type="line"/>
      <point x="108" y="167"/>
      <point x="149" y="314"/>
    </contour>
  </outline>
</glyph>
<glyph name="semicolon" format="1">
  <advance width="182"/>
  <unicode hex="003B"/>
  <outline>
    <contour>
      <point x="67" y="211" type="curve"/>
      <point x="68" y="204" type="line"/>
      <point x="128" y="184" type="line"/>
      <point x="198" y="533" type="line"/>
      <point x="192" y="598" type="line"/>
      <point x="181" y="598" type="line"/>
      <point x="142" y="448"/>
      <point x="106" y="321"/>
    </contour>
    <component base="period"/>
  </outline>
</glyph>
<glyph name="question" format="1">
  <advance width="366"/>
  <unicode hex="003F"/>
  <outline>
    <contour>
      <point x="146" y="183" type="curve"/>
      <point x="124" y="160" type="line"/>
      <point x="80" y="213"/>
      <point x="55" y="246"/>
      <point x="32" y="270" type="curve"/>
      <point x="52" y="303"/>
      <point x="92" y="351"/>
      <point x="111" y="364" type="curve"/>
      <point x="157" y="351"/>
      <point x="201" y="331"/>
      <point x="231" y="331" type="curve"/>
      <point x="257" y="331"/>
      <point x="272" y="352"/>
      <point x="280" y="375" type="curve"/>
      <point x="231" y="443"/>
      <point x="121" y="542"/>
      <point x="102" y="575" type="curve"/>
      <point x="121" y="591"/>
      <point x="144" y="602"/>
      <point x="169" y="612" type="curve"/>
      <point x="183" y="591" type="line"/>
      <point x="166" y="588"/>
      <point x="153" y="582"/>
      <point x="144" y="576" type="curve"/>
      <point x="158" y="551"/>
      <point x="266" y="459"/>
      <point x="331" y="378" type="curve"/>
      <point x="331" y="344"/>
      <point x="280" y="264"/>
      <point x="229" y="243" type="curve"/>
      <point x="163" y="243"/>
      <point x="106" y="270"/>
      <point x="78" y="277" type="curve"/>
      <point x="90" y="243"/>
      <point x="113" y="214"/>
    </contour>
    <component base="period" xOffset="23"/>
  </outline>
</glyph>
<glyph name="A" format="1">
  <advance width="754"/>
  <unicode hex="0041"/>
  <outline>
    <contour>
      <point x="346" y="618" type="curve"/>
      <point x="377" y="654" type="line"/>
      <point x="404" y="618" type="line"/>
      <point x="552" y="618"/>
      <point x="634" y="627"/>
      <point x="718" y="572" type="curve"/>
      <point x="733" y="583" type="line"/>
      <point x="709" y="624"/>
      <point x="704" y="668"/>
      <point x="722" y="715" type="curve"/>
      <point x="703" y="723" type="line"/>
      <point x="656" y="680"/>
      <point x="575" y="674"/>
      <point x="371" y="674" type="curve"/>
      <point x="223" y="674"/>
      <point x="152" y="663"/>
      <point x="79" y="725" type="curve"/>
      <point x="57" y="719" type="line"/>
      <point x="79" y="654"/>
      <point x="74" y="638"/>
      <point x="47" y="583" type="curve"/>
      <point x="67" y="568" type="line"/>
      <point x="138" y="618"/>
      <point x="168" y="617"/>
    </contour>
    <contour>
      <point x="388" y="658" type="line"/>
      <point x="364" y="660" type="line"/>
      <point x="513" y="342" type="line" smooth="yes"/>
      <point x="564" y="233"/>
      <point x="628" y="151"/>
      <point x="567" y="-24" type="curve"/>
      <point x="590" y="-39" type="line"/>
      <point x="638" y="23"/>
      <point x="686" y="65"/>
      <point x="734" y="89" type="curve"/>
      <point x="608" y="296"/>
      <point x="492" y="502"/>
      <point x="386" y="709" type="curve"/>
      <point x="373" y="708" type="line"/>
      <point x="265" y="510"/>
      <point x="147" y="276"/>
      <point x="19" y="78" type="curve"/>
      <point x="56" y="64"/>
      <point x="106" y="29"/>
      <point x="167" y="-25" type="curve"/>
      <point x="190" y="-10" type="line"/>
      <point x="129" y="190"/>
      <point x="214" y="258"/>
      <point x="262" y="368" type="curve"/>
    </contour>
    <contour>
      <point x="257" y="431" type="curve"/>
      <point x="239" y="373" type="line"/>
      <point x="286" y="296"/>
      <point x="328" y="220"/>
      <point x="365" y="143" type="curve"/>
      <point x="381" y="142" type="line"/>
      <point x="422" y="227"/>
      <point x="462" y="303"/>
      <point x="503" y="368" type="curve"/>
      <point x="488" y="433" type="line"/>
      <point x="451" y="358"/>
      <point x="405" y="270"/>
      <point x="352" y="195" type="curve"/>
      <point x="398" y="195" type="line"/>
      <point x="350" y="274"/>
      <point x="303" y="352"/>
    </contour>
    <contour>
      <point x="377" y="0" type="move" name="bottom"/>
    </contour>
    <contour>
      <point x="679" y="10" type="move" name="ogonek"/>
    </contour>
    <contour>
      <point x="377" y="700" type="move" name="top"/>
    </contour>
  </outline>
</glyph>
<glyph name="B" format="1">
  <advance width="639"/>
  <unicode hex="0042"/>
  <outline>
    <contour>
      <point x="40" y="691" type="curve"/>
      <point x="61" y="714" type="line"/>
      <point x="92" y="697"/>
      <point x="128" y="693"/>
      <point x="181" y="694" type="curve"/>
      <point x="249" y="695"/>
      <point x="318" y="711"/>
      <point x="367" y="711" type="curve"/>
      <point x="499" y="711"/>
      <point x="582" y="636"/>
      <point x="582" y="535" type="curve"/>
      <point x="582" y="444"/>
      <point x="501" y="375"/>
      <point x="426" y="363" type="curve"/>
      <point x="486" y="352"/>
      <point x="593" y="296"/>
      <point x="593" y="182" type="curve"/>
      <point x="593" y="69"/>
      <point x="515" y="-14"/>
      <point x="389" y="-14" type="curve"/>
      <point x="332" y="-14"/>
      <point x="228" y="8"/>
      <point x="159" y="8" type="curve"/>
      <point x="113" y="8"/>
      <point x="82" y="2"/>
      <point x="66" y="-8" type="curve"/>
      <point x="45" y="24" type="line"/>
      <point x="79" y="45"/>
      <point x="99" y="57"/>
      <point x="99" y="107" type="curve"/>
      <point x="100" y="553" type="line" smooth="yes"/>
      <point x="100" y="642"/>
      <point x="86" y="648"/>
    </contour>
    <contour>
      <point x="194" y="544" type="curve"/>
      <point x="194" y="147" type="line" smooth="yes"/>
      <point x="194" y="71"/>
      <point x="255" y="30"/>
      <point x="340" y="30" type="curve"/>
      <point x="446" y="30"/>
      <point x="501" y="88"/>
      <point x="501" y="175" type="curve"/>
      <point x="501" y="226"/>
      <point x="468" y="346"/>
      <point x="290" y="346" type="curve"/>
      <point x="254" y="346"/>
      <point x="218" y="343"/>
      <point x="183" y="340" type="curve"/>
      <point x="183" y="388" type="line"/>
      <point x="218" y="385"/>
      <point x="255" y="385"/>
      <point x="291" y="385" type="curve"/>
      <point x="407" y="385"/>
      <point x="492" y="431"/>
      <point x="492" y="527" type="curve"/>
      <point x="492" y="609"/>
      <point x="432" y="672"/>
      <point x="327" y="672" type="curve"/>
      <point x="240" y="672"/>
      <point x="194" y="638"/>
    </contour>
    <contour>
      <point x="307" y="0" type="move" name="bottom"/>
    </contour>
    <contour>
      <point x="307" y="700" type="move" name="top"/>
    </contour>
  </outline>
</glyph>
<glyph name="C" format="1">
  <advance width="636"/>
  <unicode hex="0043"/>
  <outline>
    <contour>
      <point x="606" y="700" type="curve"/>
      <point x="583" y="709" type="line"/>
      <point x="535" y="649" type="line"/>
      <point x="499" y="685"/>
      <point x="415" y="712"/>
      <point x="350" y="712" type="curve"/>
      <point x="186" y="712"/>
      <point x="15" y="580"/>
      <point x="15" y="352" type="curve"/>
      <point x="15" y="129"/>
      <point x="111" y="-9"/>
      <point x="330" y="-9" type="curve"/>
      <point x="415" y="-9"/>
      <point x="479" y="18"/>
      <point x="525" y="50" type="curve"/>
      <point x="571" y="-7" type="line"/>
      <point x="597" y="3" type="line"/>
      <point x="575" y="75"/>
      <point x="582" y="166"/>
      <point x="595" y="223" type="curve"/>
      <point x="569" y="229" type="line"/>
      <point x="532" y="111"/>
      <point x="487" y="37"/>
      <point x="350" y="37" type="curve"/>
      <point x="173" y="37"/>
      <point x="115" y="191"/>
      <point x="115" y="352" type="curve"/>
      <point x="115" y="538"/>
      <point x="217" y="663"/>
      <point x="360" y="663" type="curve"/>
      <point x="445" y="663"/>
      <point x="520" y="623"/>
      <point x="558" y="497" type="curve"/>
      <point x="585" y="500" type="line"/>
      <point x="581" y="571"/>
      <point x="582" y="620"/>
    </contour>
    <contour>
      <point x="283" y="0" type="move" name="bottom"/>
    </contour>
    <contour>
      <point x="283" y="700" type="move" name="top"/>
    </contour>
  </outline>
</glyph>
<glyph name="D" format="1">
  <advance width="790"/>
  <unicode hex="0044"/>
  <outline>
    <contour>
      <point x="62" y="704" type="curve"/>
      <point x="51" y="678" type="line"/>
      <point x="101" y="656"/>
      <point x="122" y="639"/>
      <point x="121" y="557" type="curve"/>
      <point x="115" y="145" type="line" smooth="yes"/>
      <point x="114" y="65"/>
      <point x="85" y="55"/>
      <point x="36" y="18" type="curve"/>
      <point x="56" y="-15" type="line"/>
      <point x="67" y="-12"/>
      <point x="115" y="21"/>
      <point x="154" y="21" type="curve"/>
      <point x="232" y="21"/>
      <point x="301" y="-10"/>
      <point x="418" y="-10" type="curve"/>
      <point x="603" y="-10"/>
      <point x="769" y="125"/>
      <point x="769" y="344" type="curve"/>
      <point x="769" y="568"/>
      <point x="625" y="711"/>
      <point x="409" y="711" type="curve"/>
      <point x="323" y="711"/>
      <point x="264" y="682"/>
      <point x="192" y="682" type="curve"/>
      <point x="158" y="682"/>
      <point x="97" y="700"/>
    </contour>
    <contour>
      <point x="222" y="514" type="curve"/>
      <point x="225" y="613"/>
      <point x="292" y="664"/>
      <point x="411" y="664" type="curve"/>
      <point x="571" y="664"/>
      <point x="660" y="541"/>
      <point x="660" y="344" type="curve"/>
      <point x="660" y="149"/>
      <point x="546" y="31"/>
      <point x="414" y="31" type="curve"/>
      <point x="318" y="31"/>
      <point x="280" y="51"/>
      <point x="222" y="103" type="curve"/>
      <point x="218" y="240"/>
      <point x="218" y="377"/>
    </contour>
    <contour>
      <point x="395" y="0" type="move" name="bottom"/>
    </contour>
    <contour>
      <point x="395" y="350" type="move" name="center"/>
    </contour>
    <contour>
      <point x="395" y="700" type="move" name="top"/>
    </contour>
  </outline>
</glyph>
<glyph name="E" format="1">
  <advance width="557"/>
  <unicode hex="0045"/>
  <outline>
    <contour>
      <point x="40" y="173" type="curve"/>
      <point x="40" y="44"/>
      <point x="160" y="-8"/>
      <point x="279" y="-8" type="curve"/>
      <point x="380" y="-8"/>
      <point x="459" y="13"/>
      <point x="498" y="-16" type="curve"/>
      <point x="515" y="-7" type="line"/>
      <point x="511" y="43"/>
      <point x="506" y="84"/>
      <point x="517" y="133" type="curve"/>
      <point x="493" y="141" type="line"/>
      <point x="462" y="69"/>
      <point x="389" y="27"/>
      <point x="301" y="27" type="curve"/>
      <point x="213" y="27"/>
      <point x="142" y="74"/>
      <point x="139" y="171" type="curve"/>
      <point x="136" y="265"/>
      <point x="204" y="339"/>
      <point x="309" y="339" type="curve"/>
      <point x="414" y="339"/>
      <point x="446" y="299"/>
      <point x="480" y="249" type="curve"/>
      <point x="502" y="257" type="line"/>
      <point x="492" y="309"/>
      <point x="474" y="357"/>
      <point x="504" y="438" type="curve"/>
      <point x="483" y="446" type="line"/>
      <point x="448" y="408"/>
      <point x="432" y="369"/>
      <point x="309" y="369" type="curve"/>
      <point x="207" y="369"/>
      <point x="137" y="432"/>
      <point x="140" y="521" type="curve"/>
      <point x="143" y="613"/>
      <point x="219" y="675"/>
      <point x="300" y="675" type="curve"/>
      <point x="404" y="675"/>
      <point x="455" y="633"/>
      <point x="484" y="526" type="curve"/>
      <point x="511" y="531" type="line"/>
      <point x="503" y="599"/>
      <point x="508" y="649"/>
      <point x="515" y="699" type="curve"/>
      <point x="500" y="707" type="line"/>
      <point x="456" y="687"/>
      <point x="409" y="709"/>
      <point x="298" y="709" type="curve"/>
      <point x="174" y="709"/>
      <point x="40" y="648"/>
      <point x="40" y="519" type="curve"/>
      <point x="40" y="406"/>
      <point x="107" y="363"/>
      <point x="188" y="344" type="curve"/>
      <point x="188" y="353" type="line"/>
      <point x="107" y="334"/>
      <point x="40" y="286"/>
    </contour>
    <contour>
      <point x="254" y="0" type="move" name="bottom"/>
    </contour>
    <contour>
      <point x="464" y="10" type="move" name="ogonek"/>
    </contour>
    <contour>
      <point x="254" y="700" type="move" name="top"/>
    </contour>
    <contour>
      <point x="11" y="700" type="move" name="topleft"/>
    </contour>
  </outline>
</glyph>
<glyph name="H" format="1">
  <advance width="818"/>
  <unicode hex="0048"/>
  <outline>
    <contour>
      <point x="47" y="712" type="curve"/>
      <point x="40" y="690" type="line"/>
      <point x="98" y="632"/>
      <point x="99" y="603"/>
      <point x="99" y="514" type="curve"/>
      <point x="99" y="154" type="line" smooth="yes"/>
      <point x="99" y="63"/>
      <point x="78" y="33"/>
      <point x="42" y="11" type="curve"/>
      <point x="47" y="-13" type="line"/>
      <point x="118" y="3"/>
      <point x="200" y="0"/>
      <point x="252" y="-9" type="curve"/>
      <point x="254" y="14" type="line"/>
      <point x="210" y="43"/>
      <point x="196" y="66"/>
      <point x="197" y="157" type="curve"/>
      <point x="199" y="514" type="line" smooth="yes"/>
      <point x="199" y="603"/>
      <point x="200" y="638"/>
      <point x="256" y="691" type="curve"/>
      <point x="251" y="712" type="line"/>
      <point x="203" y="700"/>
      <point x="121" y="695"/>
    </contour>
    <contour>
      <point x="56" y="349" type="line"/>
      <point x="56" y="341" type="line"/>
      <point x="99" y="309" type="line"/>
      <point x="379" y="311" type="line"/>
      <point x="385" y="330" type="line"/>
      <point x="373" y="341"/>
      <point x="348" y="367"/>
      <point x="348" y="412" type="curve"/>
      <point x="348" y="453"/>
      <point x="381" y="482"/>
      <point x="413" y="482" type="curve"/>
      <point x="444" y="482"/>
      <point x="480" y="453"/>
      <point x="480" y="412" type="curve"/>
      <point x="480" y="367"/>
      <point x="452" y="340"/>
      <point x="440" y="329" type="curve"/>
      <point x="446" y="311" type="line"/>
      <point x="717" y="308" type="line"/>
      <point x="770" y="341" type="line"/>
      <point x="770" y="349" type="line"/>
      <point x="717" y="373" type="line"/>
      <point x="511" y="371" type="line"/>
      <point x="537" y="453"/>
      <point x="494" y="517"/>
      <point x="412" y="517" type="curve"/>
      <point x="411" y="517" type="line" smooth="yes"/>
      <point x="336" y="517"/>
      <point x="287" y="453"/>
      <point x="315" y="371" type="curve"/>
      <point x="99" y="373" type="line"/>
    </contour>
    <contour>
      <point x="778" y="690" type="curve"/>
      <point x="772" y="712" type="line"/>
      <point x="698" y="695"/>
      <point x="616" y="700"/>
      <point x="568" y="712" type="curve"/>
      <point x="562" y="691" type="line"/>
      <point x="618" y="638"/>
      <point x="618" y="621"/>
      <point x="619" y="514" type="curve"/>
      <point x="621" y="157" type="line" smooth="yes"/>
      <point x="622" y="66"/>
      <point x="608" y="53"/>
      <point x="564" y="14" type="curve"/>
      <point x="569" y="-9" type="line"/>
      <point x="621" y="0"/>
      <point x="701" y="3"/>
      <point x="772" y="-13" type="curve"/>
      <point x="776" y="11" type="line"/>
      <point x="740" y="33"/>
      <point x="719" y="63"/>
      <point x="719" y="154" type="curve"/>
      <point x="719" y="514" type="line" smooth="yes"/>
      <point x="719" y="603"/>
      <point x="720" y="632"/>
    </contour>
    <contour>
      <point x="414" y="0" type="move" name="bottom"/>
    </contour>
    <contour>
      <point x="414" y="350" type="move" name="center"/>
    </contour>
    <contour>
      <point x="414" y="700" type="move" name="top"/>
    </contour>
    <contour>
      <point x="25" y="700" type="move" name="topleft"/>
    </contour>
  </outline>
</glyph>
<glyph name="I" format="1">
  <advance width="515"/>
  <unicode hex="0049"/>
  <outline>
    <contour>
      <point x="43" y="18" type="curve"/>
      <point x="48" y="-10" type="line"/>
      <point x="140" y="4"/>
      <point x="359" y="4"/>
      <point x="482" y="-10" type="curve"/>
      <point x="485" y="18" type="line"/>
      <point x="372" y="42"/>
      <point x="315" y="40"/>
      <point x="315" y="140" type="curve"/>
      <point x="313" y="545" type="line" smooth="yes"/>
      <point x="312" y="647"/>
      <point x="361" y="668"/>
      <point x="475" y="683" type="curve"/>
      <point x="471" y="710" type="line"/>
      <point x="334" y="700"/>
      <point x="194" y="697"/>
      <point x="48" y="710" type="curve"/>
      <point x="43" y="683" type="line"/>
      <point x="148" y="668"/>
      <point x="212" y="648"/>
      <point x="213" y="545" type="curve"/>
      <point x="215" y="140" type="line" smooth="yes"/>
      <point x="215" y="39"/>
      <point x="164" y="44"/>
    </contour>
    <contour>
      <point x="213" y="389" type="line"/>
      <point x="149" y="360" type="line"/>
      <point x="149" y="343" type="line"/>
      <point x="315" y="343" type="line"/>
      <point x="383" y="373" type="line"/>
      <point x="383" y="389" type="line"/>
    </contour>
    <contour>
      <point x="258" y="0" type="move" name="bottom"/>
    </contour>
    <contour>
      <point x="464" y="10" type="move" name="ogonek"/>
    </contour>
    <contour>
      <point x="258" y="700" type="move" name="top"/>
    </contour>
    <contour>
      <point x="20" y="700" type="move" name="topleft"/>
    </contour>
  </outline>
</glyph>
<glyph name="J" format="1">
  <advance width="439"/>
  <unicode hex="004A"/>
  <outline>
    <contour>
      <point x="5" y="-15" type="curve"/>
      <point x="30" y="1" type="line"/>
      <point x="64" y="-46"/>
      <point x="122" y="-111"/>
      <point x="212" y="-111" type="curve"/>
      <point x="284" y="-111"/>
      <point x="335" y="-54"/>
      <point x="335" y="48" type="curve"/>
      <point x="335" y="140"/>
      <point x="240" y="159"/>
      <point x="240" y="199" type="curve"/>
      <point x="240" y="292"/>
      <point x="312" y="499"/>
      <point x="332" y="619" type="curve"/>
      <point x="314" y="644"/>
      <point x="174" y="670"/>
      <point x="19" y="678" type="curve"/>
      <point x="22" y="713" type="line"/>
      <point x="172" y="703"/>
      <point x="297" y="690"/>
      <point x="407" y="722" type="curve"/>
      <point x="408" y="722" type="line"/>
      <point x="426" y="708" type="line"/>
      <point x="379" y="599"/>
      <point x="358" y="525"/>
      <point x="358" y="435" type="curve"/>
      <point x="358" y="298"/>
      <point x="399" y="214"/>
      <point x="399" y="60" type="curve"/>
      <point x="399" y="-59"/>
      <point x="341" y="-153"/>
      <point x="221" y="-153" type="curve"/>
      <point x="105" y="-153"/>
      <point x="42" y="-80"/>
    </contour>
  </outline>
</glyph>
<glyph name="K" format="1">
  <advance width="732"/>
  <unicode hex="004B"/>
  <outline>
    <contour>
      <point x="747" y="700" type="line"/>
      <point x="747" y="675" type="line"/>
      <point x="685" y="661"/>
      <point x="630" y="648"/>
      <point x="606" y="573" type="curve"/>
      <point x="576" y="480"/>
      <point x="486" y="410"/>
      <point x="437" y="383" type="curve"/>
      <point x="551" y="356"/>
      <point x="675" y="267"/>
      <point x="675" y="185" type="curve"/>
      <point x="675" y="155"/>
      <point x="632" y="128"/>
      <point x="632" y="84" type="curve"/>
      <point x="632" y="67"/>
      <point x="649" y="38"/>
      <point x="715" y="85" type="curve"/>
      <point x="727" y="68" type="line"/>
      <point x="673" y="-36"/>
      <point x="536" y="-29"/>
      <point x="536" y="59" type="curve"/>
      <point x="536" y="102"/>
      <point x="555" y="157"/>
      <point x="555" y="214" type="curve"/>
      <point x="555" y="298"/>
      <point x="482" y="357"/>
      <point x="346" y="357" type="curve"/>
      <point x="315" y="357" type="line" smooth="yes"/>
      <point x="291" y="357"/>
      <point x="257" y="344"/>
      <point x="257" y="292" type="curve"/>
      <point x="257" y="163" type="line" smooth="yes"/>
      <point x="257" y="81"/>
      <point x="272" y="48"/>
      <point x="360" y="15" type="curve"/>
      <point x="354" y="-10" type="line"/>
      <point x="272" y="3"/>
      <point x="156" y="4"/>
      <point x="70" y="-10" type="curve"/>
      <point x="64" y="14" type="line"/>
      <point x="157" y="52"/>
      <point x="157" y="70"/>
      <point x="157" y="148" type="curve"/>
      <point x="157" y="343" type="line"/>
      <point x="115" y="378" type="line"/>
      <point x="115" y="389" type="line"/>
      <point x="158" y="421" type="line"/>
      <point x="157" y="569" type="line" smooth="yes"/>
      <point x="157" y="623"/>
      <point x="133" y="644"/>
      <point x="50" y="679" type="curve"/>
      <point x="63" y="707" type="line"/>
      <point x="177" y="687"/>
      <point x="240" y="685"/>
      <point x="352" y="705" type="curve"/>
      <point x="359" y="676" type="line"/>
      <point x="280" y="646"/>
      <point x="254" y="629"/>
      <point x="255" y="566" type="curve"/>
      <point x="258" y="396" type="line"/>
      <point x="335" y="396" type="line" smooth="yes"/>
      <point x="515" y="396"/>
      <point x="462" y="601"/>
      <point x="567" y="700" type="curve"/>
    </contour>
  </outline>
</glyph>
<glyph name="L" format="1">
  <advance width="571"/>
  <unicode hex="004C"/>
  <outline>
    <contour>
      <point x="39" y="687" type="curve"/>
      <point x="45" y="708" type="line"/>
      <point x="125" y="698"/>
      <point x="197" y="698"/>
      <point x="272" y="708" type="curve"/>
      <point x="278" y="682" type="line"/>
      <point x="220" y="663"/>
      <point x="190" y="643"/>
      <point x="190" y="580" type="curve"/>
      <point x="189" y="70" type="line"/>
      <point x="380" y="80" type="line" smooth="yes"/>
      <point x="461" y="84"/>
      <point x="486" y="144"/>
      <point x="503" y="228" type="curve"/>
      <point x="533" y="224" type="line"/>
      <point x="522" y="152"/>
      <point x="524" y="76"/>
      <point x="553" y="4" type="curve"/>
      <point x="543" y="-11" type="line"/>
      <point x="380" y="5"/>
      <point x="211" y="2"/>
      <point x="43" y="-14" type="curve"/>
      <point x="34" y="13" type="line"/>
      <point x="83" y="48"/>
      <point x="89" y="60"/>
      <point x="89" y="120" type="curve"/>
      <point x="89" y="553" type="line" smooth="yes"/>
      <point x="89" y="616"/>
      <point x="102" y="652"/>
    </contour>
    <contour>
      <point x="286" y="0" type="move" name="bottom"/>
    </contour>
    <contour>
      <point x="286" y="350" type="move" name="center"/>
    </contour>
    <contour>
      <point x="286" y="700" type="move" name="top"/>
    </contour>
    <contour>
      <point x="551" y="700" type="move" name="topright"/>
    </contour>
  </outline>
</glyph>
<glyph name="M" format="1">
  <advance width="815"/>
  <unicode hex="004D"/>
  <outline>
    <contour>
      <point x="29" y="83" type="curve"/>
      <point x="187" y="-15" type="line"/>
      <point x="204" y="0" type="line"/>
      <point x="159" y="148"/>
      <point x="207" y="267"/>
      <point x="238" y="378" type="curve"/>
      <point x="278" y="522" type="line"/>
      <point x="417" y="2" type="line"/>
      <point x="441" y="2" type="line"/>
      <point x="607" y="522" type="line"/>
      <point x="643" y="378" type="line" smooth="yes"/>
      <point x="672" y="262"/>
      <point x="718" y="148"/>
      <point x="673" y="0" type="curve"/>
      <point x="690" y="-15" type="line"/>
      <point x="848" y="83" type="line"/>
      <point x="751" y="273"/>
      <point x="715" y="472"/>
      <point x="634" y="709" type="curve"/>
      <point x="610" y="710" type="line"/>
      <point x="434" y="141" type="line"/>
      <point x="288" y="709" type="line"/>
      <point x="263" y="709" type="line"/>
      <point x="192" y="472"/>
      <point x="126" y="273"/>
    </contour>
    <contour>
      <point x="408" y="0" type="move" name="bottom"/>
    </contour>
    <contour>
      <point x="408" y="700" type="move" name="top"/>
    </contour>
  </outline>
</glyph>
<glyph name="N" format="1">
  <advance width="903"/>
  <unicode hex="004E"/>
  <outline>
    <contour>
      <point x="59" y="18" type="curve"/>
      <point x="64" y="-10" type="line"/>
      <point x="137" y="4"/>
      <point x="251" y="4"/>
      <point x="354" y="-10" type="curve"/>
      <point x="357" y="18" type="line"/>
      <point x="264" y="42"/>
      <point x="252" y="40"/>
      <point x="252" y="140" type="curve"/>
      <point x="250" y="545" type="line" smooth="yes"/>
      <point x="249" y="647"/>
      <point x="253" y="638"/>
      <point x="367" y="683" type="curve"/>
      <point x="363" y="710" type="line"/>
      <point x="221" y="680"/>
      <point x="191" y="677"/>
      <point x="45" y="710" type="curve"/>
      <point x="40" y="683" type="line"/>
      <point x="145" y="648"/>
      <point x="149" y="618"/>
      <point x="150" y="515" type="curve"/>
      <point x="152" y="140" type="line" smooth="yes"/>
      <point x="153" y="39"/>
      <point x="161" y="44"/>
    </contour>
    <contour>
      <point x="151" y="380" type="line"/>
      <point x="90" y="353" type="line"/>
      <point x="90" y="337" type="line"/>
      <point x="247" y="337" type="line"/>
      <point x="316" y="366" type="line"/>
      <point x="316" y="380" type="line"/>
    </contour>
    <contour>
      <point x="596" y="18" type="curve"/>
      <point x="601" y="-10" type="line"/>
      <point x="663" y="4"/>
      <point x="777" y="4"/>
      <point x="860" y="-10" type="curve"/>
      <point x="863" y="18" type="line"/>
      <point x="790" y="42"/>
      <point x="778" y="40"/>
      <point x="778" y="140" type="curve"/>
      <point x="776" y="545" type="line" smooth="yes"/>
      <point x="775" y="647"/>
      <point x="779" y="668"/>
      <point x="863" y="683" type="curve"/>
      <point x="859" y="710" type="line"/>
      <point x="747" y="700"/>
      <point x="717" y="697"/>
      <point x="591" y="710" type="curve"/>
      <point x="586" y="683" type="line"/>
      <point x="671" y="668"/>
      <point x="675" y="648"/>
      <point x="676" y="545" type="curve"/>
      <point x="678" y="140" type="line" smooth="yes"/>
      <point x="678" y="39"/>
      <point x="687" y="44"/>
    </contour>
    <contour>
      <point x="677" y="380" type="line"/>
      <point x="616" y="353" type="line"/>
      <point x="616" y="337" type="line"/>
      <point x="773" y="337" type="line"/>
      <point x="842" y="366" type="line"/>
      <point x="842" y="380" type="line"/>
    </contour>
    <contour>
      <point x="249" y="647" type="line"/>
      <point x="217" y="622" type="line"/>
      <point x="697" y="54" type="line"/>
      <point x="719" y="88" type="line"/>
    </contour>
    <contour>
      <point x="462" y="0" type="move" name="bottom"/>
    </contour>
    <contour>
      <point x="462" y="700" type="move" name="top"/>
    </contour>
  </outline>
</glyph>
<glyph name="O" format="1">
  <advance width="741"/>
  <unicode hex="004F"/>
  <outline>
    <contour>
      <point x="369" y="712" type="curve"/>
      <point x="171" y="712"/>
      <point x="15" y="552"/>
      <point x="15" y="351" type="curve"/>
      <point x="15" y="154"/>
      <point x="171" y="-10"/>
      <point x="369" y="-10" type="curve"/>
      <point x="569" y="-10"/>
      <point x="726" y="154"/>
      <point x="726" y="351" type="curve"/>
      <point x="726" y="552"/>
      <point x="569" y="712"/>
    </contour>
    <contour>
      <point x="369" y="35" type="curve"/>
      <point x="219" y="35"/>
      <point x="125" y="165"/>
      <point x="125" y="351" type="curve"/>
      <point x="125" y="532"/>
      <point x="210" y="667"/>
      <point x="369" y="667" type="curve"/>
      <point x="514" y="667"/>
      <point x="616" y="530"/>
      <point x="616" y="351" type="curve"/>
      <point x="616" y="179"/>
      <point x="526" y="35"/>
    </contour>
    <contour>
      <point x="371" y="0" type="move" name="bottom"/>
    </contour>
    <contour>
      <point x="371" y="350" type="move" name="center"/>
    </contour>
    <contour>
      <point x="667" y="10" type="move" name="ogonek"/>
    </contour>
    <contour>
      <point x="371" y="700" type="move" name="top"/>
    </contour>
    <contour>
      <point x="20" y="700" type="move" name="topleft"/>
    </contour>
    <contour>
      <point x="721" y="700" type="move" name="topright"/>
    </contour>
  </outline>
</glyph>
<glyph name="P" format="1">
  <advance width="714"/>
  <unicode hex="0050"/>
  <outline>
    <contour>
      <point x="219" y="190" type="curve"/>
      <point x="219" y="248" type="line"/>
      <point x="265" y="189"/>
      <point x="332" y="165"/>
      <point x="385" y="165" type="curve"/>
      <point x="495" y="165"/>
      <point x="586" y="259"/>
      <point x="586" y="420" type="curve"/>
      <point x="586" y="571"/>
      <point x="509" y="673"/>
      <point x="388" y="673" type="curve"/>
      <point x="313" y="673"/>
      <point x="257" y="649"/>
      <point x="221" y="620" type="curve"/>
      <point x="226" y="138" type="line" smooth="yes"/>
      <point x="227" y="60"/>
      <point x="233" y="50"/>
      <point x="316" y="17" type="curve"/>
      <point x="311" y="-9" type="line"/>
      <point x="209" y="8"/>
      <point x="163" y="8"/>
      <point x="81" y="-9" type="curve"/>
      <point x="73" y="13" type="line"/>
      <point x="130" y="51"/>
      <point x="126" y="76"/>
      <point x="126" y="133" type="curve"/>
      <point x="127" y="250" type="line" smooth="yes"/>
      <point x="127" y="284"/>
      <point x="125" y="320"/>
      <point x="90" y="339" type="curve"/>
      <point x="88" y="351" type="line"/>
      <point x="98" y="363"/>
      <point x="112" y="371"/>
      <point x="126" y="376" type="curve"/>
      <point x="126" y="404"/>
      <point x="126" y="531"/>
      <point x="126" y="568" type="curve"/>
      <point x="126" y="642"/>
      <point x="106" y="658"/>
      <point x="40" y="686" type="curve"/>
      <point x="51" y="713" type="line"/>
      <point x="170" y="668"/>
      <point x="262" y="710"/>
      <point x="404" y="710" type="curve"/>
      <point x="549" y="710"/>
      <point x="684" y="611"/>
      <point x="684" y="416" type="curve"/>
      <point x="684" y="195"/>
      <point x="522" y="106"/>
      <point x="383" y="104" type="curve"/>
      <point x="306" y="133"/>
      <point x="251" y="171"/>
    </contour>
    <contour>
      <point x="350" y="0" type="move" name="bottom"/>
    </contour>
    <contour>
      <point x="350" y="700" type="move" name="top"/>
    </contour>
  </outline>
</glyph>
<glyph name="Q" format="1">
  <advance width="918"/>
  <unicode hex="0051"/>
  <outline>
    <contour>
      <point x="535" y="47" type="curve"/>
      <point x="389" y="-10" type="line"/>
      <point x="560" y="-10"/>
      <point x="672" y="63"/>
      <point x="774" y="63" type="curve"/>
      <point x="846" y="63"/>
      <point x="789" y="-9"/>
      <point x="856" y="-9" type="curve"/>
      <point x="888" y="-9"/>
      <point x="912" y="27"/>
      <point x="918" y="50" type="curve"/>
      <point x="901" y="56" type="line"/>
      <point x="882" y="26"/>
      <point x="859" y="21"/>
      <point x="859" y="46" type="curve"/>
      <point x="859" y="79"/>
      <point x="876" y="149"/>
      <point x="802" y="149" type="curve"/>
      <point x="727" y="149"/>
      <point x="608" y="62"/>
    </contour>
    <component base="O"/>
    <contour>
      <point x="470" y="0" type="move" name="bottom"/>
    </contour>
    <contour>
      <point x="470" y="700" type="move" name="top"/>
    </contour>
  </outline>
</glyph>
<glyph name="R" format="1">
  <advance width="774"/>
  <unicode hex="0052"/>
  <outline>
    <contour>
      <point x="147" y="343" type="line"/>
      <point x="105" y="378" type="line"/>
      <point x="105" y="389" type="line"/>
      <point x="148" y="421" type="line"/>
      <point x="147" y="566" type="line" smooth="yes"/>
      <point x="147" y="620"/>
      <point x="123" y="641"/>
      <point x="40" y="676" type="curve"/>
      <point x="53" y="704" type="line"/>
      <point x="197" y="674"/>
      <point x="248" y="710"/>
      <point x="395" y="710" type="curve"/>
      <point x="481" y="710"/>
      <point x="655" y="676"/>
      <point x="655" y="542" type="curve"/>
      <point x="655" y="420"/>
      <point x="521" y="384"/>
      <point x="459" y="374" type="curve"/>
      <point x="563" y="340"/>
      <point x="665" y="260"/>
      <point x="665" y="185" type="curve"/>
      <point x="665" y="155"/>
      <point x="622" y="128"/>
      <point x="622" y="84" type="curve"/>
      <point x="622" y="67"/>
      <point x="639" y="38"/>
      <point x="705" y="85" type="curve"/>
      <point x="717" y="68" type="line"/>
      <point x="663" y="-36"/>
      <point x="526" y="-29"/>
      <point x="526" y="59" type="curve"/>
      <point x="526" y="102"/>
      <point x="545" y="157"/>
      <point x="545" y="214" type="curve"/>
      <point x="545" y="298"/>
      <point x="472" y="357"/>
      <point x="336" y="357" type="curve"/>
      <point x="305" y="357" type="line" smooth="yes"/>
      <point x="281" y="357"/>
      <point x="247" y="344"/>
      <point x="247" y="292" type="curve"/>
      <point x="247" y="163" type="line" smooth="yes"/>
      <point x="247" y="81"/>
      <point x="262" y="48"/>
      <point x="350" y="15" type="curve"/>
      <point x="344" y="-10" type="line"/>
      <point x="262" y="3"/>
      <point x="146" y="4"/>
      <point x="60" y="-10" type="curve"/>
      <point x="54" y="14" type="line"/>
      <point x="147" y="52"/>
      <point x="147" y="70"/>
      <point x="147" y="148" type="curve"/>
    </contour>
    <contour>
      <point x="382" y="668" type="curve"/>
      <point x="293" y="668"/>
      <point x="244" y="626"/>
      <point x="245" y="563" type="curve"/>
      <point x="248" y="396" type="line"/>
      <point x="403" y="396" type="line" smooth="yes"/>
      <point x="499" y="396"/>
      <point x="545" y="471"/>
      <point x="543" y="537" type="curve"/>
      <point x="540" y="621"/>
      <point x="457" y="668"/>
    </contour>
    <contour>
      <point x="379" y="0" type="move" name="bottom"/>
    </contour>
    <contour>
      <point x="379" y="700" type="move" name="top"/>
    </contour>
  </outline>
</glyph>
<glyph name="S" format="1">
  <advance width="725"/>
  <unicode hex="0053"/>
  <outline>
    <contour>
      <point x="58" y="-29" type="curve"/>
      <point x="40" y="-9" type="line"/>
      <point x="126" y="71"/>
      <point x="120" y="150"/>
      <point x="69" y="249" type="curve"/>
      <point x="101" y="263" type="line"/>
      <point x="187" y="111"/>
      <point x="271" y="46"/>
      <point x="399" y="45" type="curve"/>
      <point x="517" y="44"/>
      <point x="597" y="90"/>
      <point x="597" y="199" type="curve"/>
      <point x="597" y="285"/>
      <point x="534" y="327"/>
      <point x="440" y="327" type="curve"/>
      <point x="372" y="327"/>
      <point x="333" y="324"/>
      <point x="263" y="324" type="curve"/>
      <point x="161" y="324"/>
      <point x="65" y="366"/>
      <point x="65" y="484" type="curve"/>
      <point x="65" y="656"/>
      <point x="227" y="712"/>
      <point x="373" y="712" type="curve"/>
      <point x="494" y="712"/>
      <point x="542" y="689"/>
      <point x="593" y="689" type="curve"/>
      <point x="622" y="689"/>
      <point x="645" y="698"/>
      <point x="677" y="740" type="curve"/>
      <point x="698" y="729" type="line"/>
      <point x="658" y="625"/>
      <point x="667" y="562"/>
      <point x="692" y="485" type="curve"/>
      <point x="663" y="471" type="line"/>
      <point x="599" y="602"/>
      <point x="498" y="672"/>
      <point x="374" y="672" type="curve"/>
      <point x="260" y="672"/>
      <point x="165" y="620"/>
      <point x="165" y="527" type="curve"/>
      <point x="165" y="459"/>
      <point x="213" y="418"/>
      <point x="286" y="418" type="curve"/>
      <point x="345" y="418"/>
      <point x="381" y="422"/>
      <point x="451" y="422" type="curve"/>
      <point x="594" y="422"/>
      <point x="685" y="356"/>
      <point x="685" y="219" type="curve"/>
      <point x="685" y="53"/>
      <point x="518" y="-9"/>
      <point x="407" y="-9" type="curve"/>
      <point x="326" y="-9"/>
      <point x="190" y="33"/>
      <point x="156" y="33" type="curve"/>
      <point x="135" y="33"/>
      <point x="89" y="0"/>
    </contour>
    <contour>
      <point x="363" y="0" type="move" name="bottom"/>
    </contour>
    <contour>
      <point x="363" y="700" type="move" name="top"/>
    </contour>
  </outline>
</glyph>
<glyph name="T" format="1">
  <advance width="786"/>
  <unicode hex="0054"/>
  <outline>
    <contour>
      <point x="196" y="-8" type="curve"/>
      <point x="196" y="22" type="line"/>
      <point x="300" y="58"/>
      <point x="335" y="78"/>
      <point x="338" y="187" type="curve"/>
      <point x="353" y="658" type="line"/>
      <point x="385" y="719" type="line"/>
      <point x="400" y="718" type="line"/>
      <point x="431" y="658" type="line"/>
      <point x="452" y="188" type="line" smooth="yes"/>
      <point x="457" y="78"/>
      <point x="489" y="54"/>
      <point x="593" y="23" type="curve"/>
      <point x="593" y="-8" type="line"/>
      <point x="445" y="3"/>
      <point x="334" y="3"/>
    </contour>
    <contour>
      <point x="72" y="527" type="curve"/>
      <point x="36" y="535" type="line"/>
      <point x="51" y="621"/>
      <point x="54" y="681"/>
      <point x="39" y="747" type="curve"/>
      <point x="67" y="757" type="line"/>
      <point x="85" y="728"/>
      <point x="143" y="680"/>
      <point x="311" y="680" type="curve"/>
      <point x="485" y="681" type="line" smooth="yes"/>
      <point x="643" y="681"/>
      <point x="701" y="729"/>
      <point x="719" y="758" type="curve"/>
      <point x="747" y="748" type="line"/>
      <point x="732" y="682"/>
      <point x="735" y="622"/>
      <point x="750" y="536" type="curve"/>
      <point x="714" y="528" type="line"/>
      <point x="694" y="585"/>
      <point x="653" y="613"/>
      <point x="494" y="613" type="curve"/>
      <point x="322" y="613" type="line" smooth="yes"/>
      <point x="133" y="612"/>
      <point x="92" y="584"/>
    </contour>
    <contour>
      <point x="393" y="0" type="move" name="bottom"/>
    </contour>
    <contour>
      <point x="393" y="350" type="move" name="center"/>
    </contour>
    <contour>
      <point x="393" y="700" type="move" name="top"/>
    </contour>
  </outline>
</glyph>
<glyph name="U" format="1">
  <advance width="810"/>
  <unicode hex="0055"/>
  <outline>
    <contour>
      <point x="45" y="684" type="curve"/>
      <point x="47" y="708" type="line"/>
      <point x="133" y="700"/>
      <point x="224" y="700"/>
      <point x="310" y="708" type="curve"/>
      <point x="311" y="684" type="line"/>
      <point x="273" y="664"/>
      <point x="239" y="619"/>
      <point x="232" y="559" type="curve"/>
      <point x="222" y="470"/>
      <point x="221" y="317"/>
      <point x="221" y="256" type="curve"/>
      <point x="221" y="118"/>
      <point x="289" y="33"/>
      <point x="417" y="33" type="curve"/>
      <point x="537" y="33"/>
      <point x="617" y="107"/>
      <point x="617" y="236" type="curve"/>
      <point x="617" y="300"/>
      <point x="612" y="506"/>
      <point x="608" y="560" type="curve"/>
      <point x="604" y="618"/>
      <point x="576" y="659"/>
      <point x="514" y="684" type="curve"/>
      <point x="515" y="708" type="line"/>
      <point x="601" y="697"/>
      <point x="678" y="697"/>
      <point x="764" y="708" type="curve"/>
      <point x="765" y="679" type="line"/>
      <point x="726" y="659"/>
      <point x="679" y="628"/>
      <point x="678" y="559" type="curve"/>
      <point x="677" y="469"/>
      <point x="668" y="295"/>
      <point x="668" y="237" type="curve"/>
      <point x="668" y="86"/>
      <point x="596" y="-10"/>
      <point x="394" y="-10" type="curve"/>
      <point x="201" y="-10"/>
      <point x="126" y="99"/>
      <point x="126" y="236" type="curve"/>
      <point x="126" y="300"/>
      <point x="128" y="507"/>
      <point x="126" y="560" type="curve"/>
      <point x="123" y="625"/>
      <point x="93" y="656"/>
    </contour>
    <contour>
      <point x="396" y="0" type="move" name="bottom"/>
    </contour>
    <contour>
      <point x="715" y="10" type="move" name="ogonek"/>
    </contour>
    <contour>
      <point x="396" y="700" type="move" name="top"/>
    </contour>
    <contour>
      <point x="775" y="700" type="move" name="topright"/>
    </contour>
  </outline>
</glyph>
<glyph name="V" format="1">
  <advance width="741"/>
  <unicode hex="0056"/>
  <outline>
    <contour>
      <point x="389" y="-11" type="line"/>
      <point x="368" y="-11" type="line"/>
      <point x="3" y="632" type="line"/>
      <point x="70" y="653"/>
      <point x="136" y="680"/>
      <point x="203" y="711" type="curve"/>
      <point x="215" y="685" type="line"/>
      <point x="182" y="642"/>
      <point x="166" y="609"/>
      <point x="195" y="541" type="curve"/>
      <point x="391" y="82" type="line"/>
      <point x="590" y="521" type="line" smooth="yes"/>
      <point x="620" y="588"/>
      <point x="626" y="621"/>
      <point x="560" y="690" type="curve"/>
      <point x="573" y="711" type="line"/>
      <point x="631" y="680"/>
      <point x="688" y="657"/>
      <point x="746" y="640" type="curve"/>
    </contour>
    <contour>
      <point x="371" y="0" type="move" name="bottom"/>
    </contour>
    <contour>
      <point x="371" y="700" type="move" name="top"/>
    </contour>
  </outline>
</glyph>
<glyph name="W" format="1">
  <advance width="803"/>
  <unicode hex="0057"/>
  <outline>
    <contour>
      <point x="421" y="-11" type="line"/>
      <point x="400" y="-11" type="line"/>
      <point x="5" y="632" type="line"/>
      <point x="72" y="653"/>
      <point x="138" y="680"/>
      <point x="205" y="711" type="curve"/>
      <point x="217" y="685" type="line"/>
      <point x="184" y="642"/>
      <point x="165" y="607"/>
      <point x="197" y="541" type="curve"/>
      <point x="423" y="78" type="line"/>
      <point x="642" y="521" type="line" smooth="yes"/>
      <point x="674" y="586"/>
      <point x="678" y="621"/>
      <point x="612" y="690" type="curve"/>
      <point x="625" y="711" type="line"/>
      <point x="683" y="680"/>
      <point x="740" y="657"/>
      <point x="798" y="640" type="curve"/>
    </contour>
    <contour>
      <point x="434" y="274" type="line"/>
      <point x="424" y="274" type="line"/>
      <point x="249" y="594" type="line"/>
      <point x="281" y="603"/>
      <point x="341" y="626"/>
      <point x="373" y="640" type="curve"/>
      <point x="378" y="629" type="line"/>
      <point x="363" y="608"/>
      <point x="348" y="583"/>
      <point x="359" y="551" type="curve"/>
      <point x="435" y="323" type="line"/>
      <point x="512" y="532" type="line" smooth="yes"/>
      <point x="524" y="564"/>
      <point x="529" y="588"/>
      <point x="498" y="620" type="curve"/>
      <point x="508" y="638" type="line"/>
      <point x="534" y="624"/>
      <point x="578" y="605"/>
      <point x="605" y="597" type="curve"/>
    </contour>
  </outline>
</glyph>
<glyph name="X" format="1">
  <advance width="708"/>
  <unicode hex="0058"/>
  <outline>
    <contour>
      <point x="49" y="78" type="move"/>
    </contour>
    <contour>
      <point x="79" y="611" type="curve"/>
      <point x="467" y="161" type="line" smooth="yes"/>
      <point x="537" y="80"/>
      <point x="535" y="63"/>
      <point x="472" y="-21" type="curve"/>
      <point x="488" y="-39" type="line"/>
      <point x="542" y="11"/>
      <point x="596" y="56"/>
      <point x="650" y="94" type="curve"/>
      <point x="261" y="552" type="line" smooth="yes"/>
      <point x="217" y="604"/>
      <point x="238" y="644"/>
      <point x="277" y="696" type="curve"/>
      <point x="260" y="717" type="line"/>
      <point x="204" y="679"/>
      <point x="143" y="643"/>
    </contour>
    <contour>
      <point x="353" y="327" type="line"/>
      <point x="334" y="368" type="line"/>
      <point x="49" y="78" type="line"/>
      <point x="117" y="43"/>
      <point x="180" y="4"/>
      <point x="240" y="-39" type="curve"/>
      <point x="259" y="-18" type="line"/>
      <point x="176" y="56"/>
      <point x="166" y="86"/>
      <point x="224" y="161" type="curve"/>
    </contour>
    <contour>
      <point x="363" y="398" type="line"/>
      <point x="392" y="362" type="line"/>
      <point x="628" y="621" type="line"/>
      <point x="566" y="649"/>
      <point x="505" y="681"/>
      <point x="447" y="717" type="curve"/>
      <point x="429" y="694" type="line"/>
      <point x="498" y="627"/>
      <point x="533" y="612"/>
      <point x="483" y="549" type="curve"/>
    </contour>
    <contour>
      <point x="354" y="0" type="move" name="bottom"/>
    </contour>
    <contour>
      <point x="354" y="700" type="move" name="top"/>
    </contour>
  </outline>
</glyph>
<glyph name="Y" format="1">
  <advance width="640"/>
  <unicode hex="0059"/>
  <outline>
    <contour>
      <point x="281" y="114" type="curve"/>
      <point x="281" y="275" type="line"/>
      <point x="49" y="643" type="line"/>
      <point x="119" y="671"/>
      <point x="168" y="686"/>
      <point x="228" y="714" type="curve"/>
      <point x="242" y="690" type="line"/>
      <point x="185" y="648"/>
      <point x="179" y="631"/>
      <point x="206" y="583" type="curve"/>
      <point x="351" y="320" type="line"/>
      <point x="508" y="601" type="line" smooth="yes"/>
      <point x="528" y="636"/>
      <point x="490" y="658"/>
      <point x="436" y="688" type="curve"/>
      <point x="450" y="715" type="line"/>
      <point x="508" y="695"/>
      <point x="565" y="676"/>
      <point x="623" y="656" type="curve"/>
      <point x="374" y="288" type="line"/>
      <point x="378" y="114" type="line" smooth="yes"/>
      <point x="379" y="63"/>
      <point x="453" y="27"/>
      <point x="505" y="20" type="curve"/>
      <point x="505" y="-7" type="line"/>
      <point x="413" y="4"/>
      <point x="240" y="3"/>
      <point x="150" y="-7" type="curve"/>
      <point x="150" y="20" type="line"/>
      <point x="192" y="28"/>
      <point x="281" y="63"/>
    </contour>
    <contour>
      <point x="320" y="0" type="move" name="bottom"/>
    </contour>
    <contour>
      <point x="320" y="700" type="move" name="top"/>
    </contour>
    <contour>
      <point x="20" y="700" type="move" name="topleft"/>
    </contour>
  </outline>
</glyph>
<glyph name="Z" format="1">
  <advance width="700"/>
  <unicode hex="005A"/>
  <outline>
    <contour>
      <point x="27" y="-6" type="curve"/>
      <point x="20" y="17" type="line"/>
      <point x="156" y="127"/>
      <point x="443" y="556"/>
      <point x="516" y="656" type="curve"/>
      <point x="316" y="653" type="line" smooth="yes"/>
      <point x="194" y="651"/>
      <point x="159" y="631"/>
      <point x="95" y="539" type="curve"/>
      <point x="66" y="546" type="line"/>
      <point x="109" y="710" type="line"/>
      <point x="295" y="692"/>
      <point x="482" y="695"/>
      <point x="668" y="710" type="curve"/>
      <point x="680" y="689" type="line"/>
      <point x="602" y="625"/>
      <point x="351" y="264"/>
      <point x="194" y="45" type="curve"/>
      <point x="426" y="52" type="line" smooth="yes"/>
      <point x="509" y="55"/>
      <point x="601" y="81"/>
      <point x="624" y="189" type="curve"/>
      <point x="658" y="186" type="line"/>
      <point x="635" y="-5" type="line"/>
      <point x="412" y="-3"/>
      <point x="248" y="-2"/>
    </contour>
    <contour>
      <point x="389" y="0" type="move" name="bottom"/>
    </contour>
    <contour>
      <point x="389" y="700" type="move" name="top"/>
    </contour>
  </outline>
</glyph>
<glyph name="a" format="1">
  <advance width="347"/>
  <unicode hex="0061"/>
  <outline>
    <contour>
      <point x="75" y="130" type="curve"/>
      <point x="75" y="179"/>
      <point x="121" y="192"/>
      <point x="201" y="198" type="curve"/>
      <point x="210" y="101"/>
      <point x="161" y="79"/>
      <point x="126" y="79" type="curve"/>
      <point x="104" y="79"/>
      <point x="75" y="96"/>
    </contour>
    <contour>
      <point x="201" y="282" type="curve"/>
      <point x="200" y="210" type="line"/>
      <point x="239" y="240" type="line"/>
      <point x="189" y="236"/>
      <point x="95" y="219"/>
      <point x="77" y="205" type="curve"/>
      <point x="55" y="177"/>
      <point x="34" y="138"/>
      <point x="34" y="92" type="curve"/>
      <point x="34" y="25"/>
      <point x="64" y="-9"/>
      <point x="121" y="-9" type="curve"/>
      <point x="163" y="11"/>
      <point x="187" y="39"/>
      <point x="203" y="76" type="curve"/>
      <point x="221" y="-7" type="line"/>
      <point x="230" y="-11" type="line"/>
      <point x="337" y="29" type="line"/>
      <point x="328" y="60" type="line"/>
      <point x="306" y="50"/>
      <point x="285" y="50"/>
      <point x="285" y="93" type="curve"/>
      <point x="285" y="172"/>
      <point x="287" y="281"/>
      <point x="287" y="330" type="curve"/>
      <point x="287" y="349"/>
      <point x="212" y="400"/>
      <point x="186" y="400" type="curve"/>
      <point x="174" y="400"/>
      <point x="95" y="367"/>
      <point x="46" y="347" type="curve"/>
      <point x="57" y="313" type="line"/>
      <point x="91" y="329"/>
      <point x="112" y="338"/>
      <point x="133" y="338" type="curve"/>
      <point x="165" y="338"/>
      <point x="201" y="318"/>
    </contour>
    <contour>
      <point x="167" y="0" type="move" name="bottom"/>
    </contour>
    <contour>
      <point x="304" y="10" type="move" name="ogonek"/>
    </contour>
    <contour>
      <point x="167" y="390" type="move" name="top"/>
    </contour>
  </outline>
</glyph>
<glyph name="b" format="1">
  <advance width="481"/>
  <unicode hex="0062"/>
  <outline>
    <contour>
      <point x="250" y="-9" type="curve"/>
      <point x="281" y="-9"/>
      <point x="456" y="78"/>
      <point x="456" y="228" type="curve"/>
      <point x="456" y="335"/>
      <point x="409" y="401"/>
      <point x="268" y="401" type="curve"/>
      <point x="233" y="401"/>
      <point x="110" y="365"/>
      <point x="33" y="343" type="curve"/>
      <point x="33" y="333" type="line"/>
      <point x="79" y="308" type="line"/>
      <point x="118" y="330"/>
      <point x="168" y="356"/>
      <point x="233" y="356" type="curve"/>
      <point x="325" y="356"/>
      <point x="381" y="284"/>
      <point x="381" y="202" type="curve"/>
      <point x="381" y="109"/>
      <point x="335" y="54"/>
      <point x="275" y="54" type="curve"/>
      <point x="204" y="54"/>
      <point x="158" y="81"/>
      <point x="156" y="138" type="curve"/>
      <point x="153" y="220"/>
      <point x="150" y="580"/>
      <point x="169" y="696" type="curve"/>
      <point x="149" y="711" type="line"/>
      <point x="104" y="678"/>
      <point x="61" y="652"/>
      <point x="20" y="636" type="curve"/>
      <point x="21" y="615" type="line"/>
      <point x="44" y="601"/>
      <point x="66" y="584"/>
      <point x="66" y="540" type="curve"/>
      <point x="66" y="523"/>
      <point x="75" y="132"/>
      <point x="69" y="0" type="curve"/>
      <point x="118" y="2"/>
      <point x="189" y="-9"/>
    </contour>
    <contour>
      <point x="236" y="0" type="move" name="bottom"/>
    </contour>
    <contour>
      <point x="236" y="700" type="move" name="top"/>
    </contour>
  </outline>
</glyph>
<glyph name="c" format="1">
  <advance width="298"/>
  <unicode hex="0063"/>
  <outline>
    <contour>
      <point x="147" y="391" type="curve"/>
      <point x="75" y="338" type="line"/>
      <point x="55" y="309"/>
      <point x="35" y="266"/>
      <point x="35" y="191" type="curve"/>
      <point x="35" y="76"/>
      <point x="80" y="-8"/>
      <point x="180" y="-8" type="curve"/>
      <point x="227" y="-8"/>
      <point x="264" y="25"/>
      <point x="298" y="42" type="curve"/>
      <point x="293" y="65" type="line"/>
      <point x="191" y="36"/>
      <point x="110" y="83"/>
      <point x="110" y="205" type="curve"/>
      <point x="110" y="257"/>
      <point x="115" y="300"/>
      <point x="138" y="352" type="curve"/>
      <point x="117" y="329" type="line"/>
      <point x="168" y="334"/>
      <point x="224" y="327"/>
      <point x="264" y="306" type="curve"/>
      <point x="270" y="309" type="line"/>
      <point x="281" y="388" type="line"/>
      <point x="256" y="395"/>
      <point x="220" y="401"/>
    </contour>
    <contour>
      <point x="161" y="0" type="move" name="bottom"/>
    </contour>
    <contour>
      <point x="161" y="390" type="move" name="top"/>
    </contour>
  </outline>
</glyph>
<glyph name="d" format="1">
  <advance width="464"/>
  <unicode hex="0064"/>
  <outline>
    <contour>
      <point x="245" y="691" type="curve"/>
      <point x="245" y="663" type="line"/>
      <point x="290" y="651"/>
      <point x="317" y="651"/>
      <point x="317" y="582" type="curve"/>
      <point x="318" y="134" type="line"/>
      <point x="324" y="86"/>
      <point x="329" y="48"/>
      <point x="335" y="1" type="curve"/>
      <point x="350" y="-10" type="line"/>
      <point x="376" y="3"/>
      <point x="406" y="12"/>
      <point x="444" y="35" type="curve"/>
      <point x="444" y="55" type="line"/>
      <point x="385" y="144"/>
      <point x="397" y="529"/>
      <point x="426" y="699" type="curve"/>
      <point x="405" y="711" type="line"/>
      <point x="363" y="701"/>
      <point x="296" y="691"/>
    </contour>
    <contour>
      <point x="347" y="125" type="curve"/>
      <point x="335" y="161" type="line"/>
      <point x="292" y="102"/>
      <point x="250" y="84"/>
      <point x="198" y="84" type="curve"/>
      <point x="122" y="84"/>
      <point x="76" y="125"/>
      <point x="76" y="210" type="curve"/>
      <point x="76" y="284"/>
      <point x="128" y="334"/>
      <point x="215" y="334" type="curve"/>
      <point x="279" y="334"/>
      <point x="320" y="302"/>
      <point x="343" y="278" type="curve"/>
      <point x="350" y="382" type="line"/>
      <point x="323" y="387"/>
      <point x="252" y="399"/>
      <point x="240" y="399" type="curve"/>
      <point x="123" y="399"/>
      <point x="25" y="312"/>
      <point x="25" y="179" type="curve"/>
      <point x="25" y="46"/>
      <point x="109" y="-10"/>
      <point x="197" y="-10" type="curve"/>
      <point x="243" y="21"/>
      <point x="280" y="55"/>
    </contour>
    <contour>
      <point x="226" y="0" type="move" name="bottom"/>
    </contour>
    <contour>
      <point x="226" y="195" type="move" name="center"/>
    </contour>
    <contour>
      <point x="226" y="700" type="move" name="top"/>
    </contour>
    <contour>
      <point x="444" y="390" type="move" name="topright"/>
    </contour>
  </outline>
</glyph>
<glyph name="e" format="1">
  <advance width="301"/>
  <unicode hex="0065"/>
  <outline>
    <contour>
      <point x="100" y="213" type="curve"/>
      <point x="100" y="120"/>
      <point x="140" y="57"/>
      <point x="225" y="57" type="curve"/>
      <point x="254" y="57"/>
      <point x="266" y="63"/>
      <point x="283" y="68" type="curve"/>
      <point x="291" y="41" type="line"/>
      <point x="256" y="24"/>
      <point x="250" y="10"/>
      <point x="214" y="-10" type="curve"/>
      <point x="101" y="-10"/>
      <point x="25" y="60"/>
      <point x="25" y="169" type="curve"/>
      <point x="25" y="226"/>
      <point x="30" y="294"/>
      <point x="40" y="331" type="curve"/>
      <point x="176" y="403" type="line"/>
      <point x="217" y="375"/>
      <point x="259" y="312"/>
      <point x="296" y="271" type="curve"/>
      <point x="292" y="254" type="line"/>
      <point x="230" y="213"/>
      <point x="176" y="188"/>
      <point x="103" y="136" type="curve"/>
      <point x="99" y="170" type="line"/>
      <point x="146" y="198"/>
      <point x="182" y="215"/>
      <point x="212" y="240" type="curve"/>
      <point x="212" y="255"/>
      <point x="179" y="300"/>
      <point x="129" y="342" type="curve"/>
      <point x="109" y="321"/>
      <point x="100" y="268"/>
    </contour>
    <contour>
      <point x="155" y="0" type="move" name="bottom"/>
    </contour>
    <contour>
      <point x="291" y="10" type="move" name="ogonek"/>
    </contour>
    <contour>
      <point x="155" y="390" type="move" name="top"/>
    </contour>
  </outline>
</glyph>
<glyph name="f" format="1">
  <advance width="246"/>
  <unicode hex="0066"/>
  <outline>
    <contour>
      <point x="152" y="617" type="curve"/>
      <point x="153" y="109" type="line" smooth="yes"/>
      <point x="153" y="38"/>
      <point x="152" y="38"/>
      <point x="222" y="21" type="curve"/>
      <point x="222" y="-6" type="line"/>
      <point x="145" y="0"/>
      <point x="73" y="1"/>
      <point x="5" y="-6" type="curve"/>
      <point x="5" y="21" type="line"/>
      <point x="67" y="37"/>
      <point x="68" y="37"/>
      <point x="68" y="108" type="curve"/>
      <point x="67" y="618" type="line"/>
      <point x="108" y="654"/>
      <point x="131" y="662"/>
      <point x="174" y="701" type="curve"/>
      <point x="202" y="699"/>
      <point x="241" y="699"/>
      <point x="276" y="695" type="curve"/>
      <point x="272" y="608" type="line"/>
      <point x="232" y="611"/>
      <point x="175" y="617"/>
    </contour>
    <contour>
      <point x="76" y="346" type="line"/>
      <point x="16" y="368" type="line"/>
      <point x="16" y="390" type="line"/>
      <point x="262" y="390" type="line"/>
      <point x="262" y="346" type="line"/>
    </contour>
    <contour>
      <point x="109" y="0" type="move" name="bottom"/>
    </contour>
    <contour>
      <point x="109" y="700" type="move" name="top"/>
    </contour>
  </outline>
</glyph>
<glyph name="g" format="1">
  <advance width="420"/>
  <unicode hex="0067"/>
  <outline>
    <contour>
      <point x="385" y="340" type="line"/>
      <point x="244" y="342" type="line"/>
      <point x="205" y="393" type="line"/>
      <point x="265" y="393"/>
      <point x="295" y="393"/>
      <point x="385" y="394" type="curve"/>
    </contour>
    <contour>
      <point x="196" y="314" type="curve"/>
      <point x="129" y="314"/>
      <point x="81" y="275"/>
      <point x="81" y="226" type="curve"/>
      <point x="81" y="178"/>
      <point x="126" y="153"/>
      <point x="169" y="153" type="curve"/>
      <point x="235" y="153"/>
      <point x="291" y="190"/>
      <point x="291" y="239" type="curve"/>
      <point x="291" y="281"/>
      <point x="259" y="314"/>
    </contour>
    <contour>
      <point x="165" y="138" type="curve"/>
      <point x="236" y="126" type="line"/>
      <point x="193" y="122"/>
      <point x="155" y="90"/>
      <point x="145" y="76" type="curve"/>
      <point x="155" y="59"/>
      <point x="189" y="50"/>
      <point x="253" y="41" type="curve"/>
      <point x="345" y="28"/>
      <point x="405" y="11"/>
      <point x="405" y="-78" type="curve"/>
      <point x="405" y="-164"/>
      <point x="312" y="-212"/>
      <point x="216" y="-212" type="curve"/>
      <point x="111" y="-212"/>
      <point x="15" y="-175"/>
      <point x="15" y="-101" type="curve"/>
      <point x="15" y="-17"/>
      <point x="95" y="-4"/>
      <point x="186" y="23" type="curve"/>
      <point x="237" y="0" type="line"/>
      <point x="136" y="-9"/>
      <point x="109" y="-38"/>
      <point x="109" y="-73" type="curve"/>
      <point x="109" y="-120"/>
      <point x="162" y="-139"/>
      <point x="224" y="-139" type="curve"/>
      <point x="292" y="-139"/>
      <point x="372" y="-126"/>
      <point x="372" y="-67" type="curve"/>
      <point x="372" y="-20"/>
      <point x="302" y="-4"/>
      <point x="216" y="-2" type="curve"/>
      <point x="162" y="-1"/>
      <point x="107" y="42"/>
      <point x="80" y="65" type="curve"/>
      <point x="80" y="85" type="line"/>
      <point x="105" y="99"/>
      <point x="142" y="113"/>
    </contour>
    <contour>
      <point x="18" y="245" type="curve"/>
      <point x="18" y="344"/>
      <point x="97" y="389"/>
      <point x="208" y="393" type="curve"/>
      <point x="261" y="395"/>
      <point x="357" y="334"/>
      <point x="357" y="254" type="curve"/>
      <point x="357" y="176"/>
      <point x="272" y="120"/>
      <point x="184" y="120" type="curve"/>
      <point x="99" y="120"/>
      <point x="18" y="151"/>
    </contour>
    <contour>
      <point x="243" y="-200" type="move" name="bottom"/>
    </contour>
    <contour>
      <point x="223" y="390" type="move" name="top"/>
    </contour>
  </outline>
</glyph>
<glyph name="h" format="1">
  <advance width="483"/>
  <unicode hex="0068"/>
  <outline>
    <contour>
      <point x="149" y="312" type="curve"/>
      <point x="145" y="345" type="line"/>
      <point x="186" y="365"/>
      <point x="246" y="402"/>
      <point x="274" y="402" type="curve"/>
      <point x="400" y="402"/>
      <point x="458" y="329"/>
      <point x="458" y="224" type="curve"/>
      <point x="458" y="127"/>
      <point x="389" y="67"/>
      <point x="369" y="35" type="curve"/>
      <point x="396" y="29"/>
      <point x="414" y="27"/>
      <point x="431" y="24" type="curve"/>
      <point x="431" y="24"/>
      <point x="430" y="-7"/>
      <point x="430" y="-7" type="curve"/>
      <point x="393" y="-2"/>
      <point x="330" y="1"/>
      <point x="272" y="-5" type="curve"/>
      <point x="273" y="23" type="line"/>
      <point x="342" y="51"/>
      <point x="398" y="93"/>
      <point x="398" y="185" type="curve"/>
      <point x="398" y="291"/>
      <point x="312" y="337"/>
      <point x="243" y="337" type="curve"/>
      <point x="207" y="337"/>
      <point x="174" y="329"/>
    </contour>
    <contour>
      <point x="60" y="590" type="curve"/>
      <point x="57" y="634"/>
      <point x="59" y="618"/>
      <point x="29" y="608" type="curve"/>
      <point x="20" y="636" type="line"/>
      <point x="61" y="658"/>
      <point x="120" y="686"/>
      <point x="172" y="714" type="curve"/>
      <point x="186" y="690" type="line"/>
      <point x="156" y="664"/>
      <point x="157" y="664"/>
      <point x="156" y="621" type="curve"/>
      <point x="153" y="488"/>
      <point x="151" y="246"/>
      <point x="155" y="107" type="curve"/>
      <point x="157" y="36"/>
      <point x="154" y="36"/>
      <point x="204" y="19" type="curve"/>
      <point x="204" y="-6" type="line"/>
      <point x="147" y="0"/>
      <point x="71" y="1"/>
      <point x="30" y="-6" type="curve"/>
      <point x="30" y="19" type="line"/>
      <point x="75" y="35"/>
      <point x="70" y="35"/>
      <point x="71" y="97" type="curve"/>
      <point x="73" y="261"/>
      <point x="70" y="426"/>
    </contour>
    <contour>
      <point x="236" y="0" type="move" name="bottom"/>
    </contour>
    <contour>
      <point x="236" y="350" type="move" name="center"/>
    </contour>
    <contour>
      <point x="236" y="700" type="move" name="top"/>
    </contour>
  </outline>
</glyph>
<glyph name="j" format="1">
  <advance width="233"/>
  <unicode hex="006A"/>
  <outline>
    <contour>
      <point x="118" y="699" type="line"/>
      <point x="97" y="546" type="line"/>
      <point x="132" y="526" type="line"/>
      <point x="183" y="682" type="line"/>
      <point x="126" y="703" type="line"/>
    </contour>
    <contour>
      <point x="58" y="86" type="curve"/>
      <point x="58" y="294" type="line"/>
      <point x="58" y="338"/>
      <point x="34" y="335"/>
      <point x="11" y="349" type="curve"/>
      <point x="10" y="368" type="line"/>
      <point x="51" y="376"/>
      <point x="91" y="386"/>
      <point x="133" y="419" type="curve"/>
      <point x="153" y="408" type="line"/>
      <point x="136" y="297"/>
      <point x="144" y="156"/>
      <point x="142" y="26" type="curve"/>
      <point x="100" y="-35"/>
      <point x="77" y="-87"/>
      <point x="47" y="-146" type="curve"/>
      <point x="17" y="-135" type="line"/>
      <point x="47" y="-55"/>
      <point x="58" y="10"/>
    </contour>
  </outline>
</glyph>
<glyph name="k" format="1">
  <advance width="333"/>
  <unicode hex="006B"/>
  <outline>
    <contour>
      <point x="129" y="187" type="curve"/>
      <point x="122" y="219" type="line"/>
      <point x="171" y="271"/>
      <point x="231" y="324"/>
      <point x="280" y="392" type="curve"/>
      <point x="288" y="391" type="line"/>
      <point x="313" y="306" type="line"/>
      <point x="313" y="297" type="line"/>
      <point x="245" y="264"/>
      <point x="197" y="230"/>
    </contour>
    <contour>
      <point x="327" y="94" type="curve"/>
      <point x="329" y="86" type="line"/>
      <point x="313" y="-2" type="line"/>
      <point x="301" y="-6" type="line"/>
      <point x="220" y="77"/>
      <point x="168" y="128"/>
      <point x="107" y="191" type="curve"/>
      <point x="105" y="228" type="line"/>
      <point x="183" y="168"/>
      <point x="253" y="124"/>
    </contour>
    <contour>
      <point x="59" y="97" type="curve"/>
      <point x="55" y="564" type="line"/>
      <point x="55" y="608"/>
      <point x="51" y="622"/>
      <point x="8" y="629" type="curve"/>
      <point x="7" y="652" type="line"/>
      <point x="48" y="668"/>
      <point x="101" y="688"/>
      <point x="143" y="711" type="curve"/>
      <point x="157" y="699" type="line"/>
      <point x="134" y="609"/>
      <point x="138" y="303"/>
      <point x="138" y="107" type="curve"/>
      <point x="138" y="36"/>
      <point x="137" y="36"/>
      <point x="169" y="19" type="curve"/>
      <point x="169" y="-6" type="line"/>
      <point x="130" y="0"/>
      <point x="59" y="1"/>
      <point x="18" y="-6" type="curve"/>
      <point x="18" y="19" type="line"/>
      <point x="63" y="35"/>
      <point x="60" y="35"/>
    </contour>
    <contour>
      <point x="167" y="0" type="move" name="bottom"/>
    </contour>
    <contour>
      <point x="167" y="700" type="move" name="top"/>
    </contour>
  </outline>
</glyph>
<glyph name="l" format="1">
  <advance width="236"/>
  <unicode hex="006C"/>
  <outline>
    <contour>
      <point x="78" y="97" type="curve"/>
      <point x="78" y="579" type="line"/>
      <point x="78" y="630"/>
      <point x="75" y="631"/>
      <point x="32" y="628" type="curve"/>
      <point x="30" y="653" type="line"/>
      <point x="71" y="669"/>
      <point x="117" y="688"/>
      <point x="159" y="711" type="curve"/>
      <point x="179" y="696" type="line"/>
      <point x="149" y="659"/>
      <point x="162" y="303"/>
      <point x="162" y="107" type="curve"/>
      <point x="162" y="36"/>
      <point x="161" y="36"/>
      <point x="211" y="19" type="curve"/>
      <point x="211" y="-6" type="line"/>
      <point x="154" y="0"/>
      <point x="78" y="1"/>
      <point x="37" y="-6" type="curve"/>
      <point x="37" y="19" type="line"/>
      <point x="82" y="35"/>
      <point x="78" y="35"/>
    </contour>
    <contour>
      <point x="38" y="382" type="line"/>
      <point x="80" y="401" type="line"/>
      <point x="81" y="353" type="line"/>
      <point x="63" y="367"/>
      <point x="50" y="365"/>
      <point x="39" y="371" type="curve"/>
    </contour>
    <contour>
      <point x="118" y="0" type="move" name="bottom"/>
    </contour>
    <contour>
      <point x="118" y="350" type="move" name="center"/>
    </contour>
    <contour>
      <point x="118" y="700" type="move" name="top"/>
    </contour>
    <contour>
      <point x="216" y="700" type="move" name="topright"/>
    </contour>
  </outline>
</glyph>
<glyph name="m" format="1">
  <advance width="708"/>
  <unicode hex="006D"/>
  <outline>
    <contour>
      <point x="134" y="299" type="curve"/>
      <point x="137" y="334" type="line"/>
      <point x="177" y="366"/>
      <point x="217" y="399"/>
      <point x="277" y="399" type="curve"/>
      <point x="360" y="399"/>
      <point x="404" y="330"/>
      <point x="400" y="308" type="curve"/>
      <point x="390" y="258"/>
      <point x="396" y="159"/>
      <point x="399" y="87" type="curve"/>
      <point x="401" y="38"/>
      <point x="404" y="35"/>
      <point x="445" y="20" type="curve"/>
      <point x="445" y="-6" type="line"/>
      <point x="370" y="1"/>
      <point x="334" y="1"/>
      <point x="269" y="-6" type="curve"/>
      <point x="269" y="20" type="line"/>
      <point x="310" y="38"/>
      <point x="310" y="37"/>
      <point x="311" y="87" type="curve"/>
      <point x="315" y="276" type="line" smooth="yes"/>
      <point x="316" y="323"/>
      <point x="275" y="342"/>
      <point x="237" y="342" type="curve"/>
      <point x="187" y="342"/>
      <point x="156" y="318"/>
    </contour>
    <contour>
      <point x="66" y="100" type="curve"/>
      <point x="66" y="272" type="line"/>
      <point x="66" y="326"/>
      <point x="42" y="332"/>
      <point x="19" y="346" type="curve"/>
      <point x="18" y="368" type="line"/>
      <point x="58" y="378"/>
      <point x="101" y="385"/>
      <point x="144" y="408" type="curve"/>
      <point x="164" y="397" type="line"/>
      <point x="147" y="326"/>
      <point x="151" y="280"/>
      <point x="152" y="110" type="curve"/>
      <point x="152" y="39"/>
      <point x="151" y="39"/>
      <point x="201" y="22" type="curve"/>
      <point x="201" y="-6" type="line"/>
      <point x="144" y="0"/>
      <point x="66" y="1"/>
      <point x="25" y="-6" type="curve"/>
      <point x="25" y="22" type="line"/>
      <point x="70" y="38"/>
      <point x="66" y="38"/>
    </contour>
    <contour>
      <point x="380" y="289" type="curve"/>
      <point x="383" y="335" type="line"/>
      <point x="423" y="367"/>
      <point x="463" y="399"/>
      <point x="523" y="399" type="curve"/>
      <point x="606" y="399"/>
      <point x="650" y="330"/>
      <point x="646" y="308" type="curve"/>
      <point x="637" y="258"/>
      <point x="642" y="159"/>
      <point x="645" y="87" type="curve"/>
      <point x="647" y="38"/>
      <point x="650" y="35"/>
      <point x="691" y="20" type="curve"/>
      <point x="691" y="-6" type="line"/>
      <point x="616" y="1"/>
      <point x="580" y="1"/>
      <point x="515" y="-6" type="curve"/>
      <point x="515" y="20" type="line"/>
      <point x="556" y="38"/>
      <point x="556" y="37"/>
      <point x="557" y="87" type="curve"/>
      <point x="561" y="276" type="line" smooth="yes"/>
      <point x="562" y="323"/>
      <point x="521" y="342"/>
      <point x="483" y="342" type="curve"/>
      <point x="433" y="342"/>
      <point x="402" y="308"/>
    </contour>
    <contour>
      <point x="354" y="0" type="move" name="bottom"/>
    </contour>
    <contour>
      <point x="354" y="390" type="move" name="top"/>
    </contour>
  </outline>
</glyph>
<glyph name="n" format="1">
  <advance width="456"/>
  <unicode hex="006E"/>
  <outline>
    <contour>
      <point x="135" y="299" type="curve"/>
      <point x="138" y="336" type="line"/>
      <point x="204" y="372"/>
      <point x="238" y="399"/>
      <point x="298" y="399" type="curve"/>
      <point x="361" y="399"/>
      <point x="403" y="346"/>
      <point x="399" y="324" type="curve"/>
      <point x="391" y="276"/>
      <point x="397" y="159"/>
      <point x="400" y="87" type="curve"/>
      <point x="402" y="38"/>
      <point x="405" y="35"/>
      <point x="446" y="20" type="curve"/>
      <point x="446" y="-6" type="line"/>
      <point x="371" y="1"/>
      <point x="335" y="1"/>
      <point x="270" y="-6" type="curve"/>
      <point x="270" y="20" type="line"/>
      <point x="311" y="38"/>
      <point x="311" y="37"/>
      <point x="312" y="87" type="curve"/>
      <point x="316" y="249" type="line" smooth="yes"/>
      <point x="318" y="316"/>
      <point x="280" y="333"/>
      <point x="232" y="333" type="curve"/>
      <point x="202" y="333"/>
      <point x="157" y="318"/>
    </contour>
    <contour>
      <point x="58" y="100" type="curve"/>
      <point x="58" y="272" type="line"/>
      <point x="58" y="326"/>
      <point x="34" y="332"/>
      <point x="11" y="346" type="curve"/>
      <point x="10" y="368" type="line"/>
      <point x="50" y="378"/>
      <point x="92" y="385"/>
      <point x="135" y="408" type="curve"/>
      <point x="155" y="397" type="line"/>
      <point x="138" y="326"/>
      <point x="142" y="280"/>
      <point x="143" y="110" type="curve"/>
      <point x="143" y="39"/>
      <point x="142" y="39"/>
      <point x="192" y="22" type="curve"/>
      <point x="192" y="-6" type="line"/>
      <point x="135" y="0"/>
      <point x="58" y="1"/>
      <point x="17" y="-6" type="curve"/>
      <point x="17" y="22" type="line"/>
      <point x="62" y="38"/>
      <point x="58" y="38"/>
    </contour>
    <contour>
      <point x="229" y="0" type="move" name="bottom"/>
    </contour>
    <contour>
      <point x="229" y="390" type="move" name="top"/>
    </contour>
  </outline>
</glyph>
<glyph name="o" format="1">
  <advance width="445"/>
  <unicode hex="006F"/>
  <outline>
    <contour>
      <point x="25" y="192" type="curve"/>
      <point x="25" y="57"/>
      <point x="134" y="-10"/>
      <point x="232" y="-10" type="curve"/>
      <point x="329" y="-10"/>
      <point x="420" y="88"/>
      <point x="420" y="198" type="curve"/>
      <point x="420" y="333"/>
      <point x="323" y="400"/>
      <point x="223" y="400" type="curve"/>
      <point x="116" y="400"/>
      <point x="25" y="311"/>
    </contour>
    <contour>
      <point x="114" y="208" type="curve"/>
      <point x="114" y="293"/>
      <point x="146" y="364"/>
      <point x="215" y="364" type="curve"/>
      <point x="292" y="364"/>
      <point x="331" y="295"/>
      <point x="331" y="182" type="curve"/>
      <point x="331" y="97"/>
      <point x="309" y="26"/>
      <point x="230" y="26" type="curve"/>
      <point x="153" y="26"/>
      <point x="114" y="115"/>
    </contour>
    <contour>
      <point x="221" y="0" type="move" name="bottom"/>
    </contour>
    <contour>
      <point x="221" y="195" type="move" name="center"/>
    </contour>
    <contour>
      <point x="394" y="10" type="move" name="ogonek"/>
    </contour>
    <contour>
      <point x="319" y="390" type="move" name="top"/>
    </contour>
    <contour>
      <point x="417" y="390" type="move" name="topright"/>
    </contour>
  </outline>
</glyph>
<glyph name="p" format="1">
  <advance width="433"/>
  <unicode hex="0070"/>
  <outline>
    <contour>
      <point x="19" y="62" type="line"/>
      <point x="112" y="118" type="line"/>
      <point x="164" y="74"/>
      <point x="197" y="55"/>
      <point x="251" y="55" type="curve"/>
      <point x="321" y="55"/>
      <point x="364" y="95"/>
      <point x="364" y="180" type="curve"/>
      <point x="364" y="271"/>
      <point x="298" y="319"/>
      <point x="225" y="319" type="curve"/>
      <point x="176" y="319"/>
      <point x="142" y="289"/>
      <point x="142" y="289" type="curve"/>
      <point x="137" y="319" type="line"/>
      <point x="169" y="342"/>
      <point x="224" y="392"/>
      <point x="250" y="401" type="curve"/>
      <point x="361" y="399"/>
      <point x="414" y="326"/>
      <point x="413" y="204" type="curve"/>
      <point x="412" y="66"/>
      <point x="306" y="-9"/>
      <point x="239" y="-9" type="curve"/>
      <point x="220" y="-2"/>
      <point x="81" y="32"/>
      <point x="19" y="53" type="curve"/>
    </contour>
    <contour>
      <point x="61" y="-112" type="curve"/>
      <point x="61" y="284" type="line"/>
      <point x="61" y="328"/>
      <point x="37" y="339"/>
      <point x="14" y="349" type="curve"/>
      <point x="13" y="368" type="line"/>
      <point x="49" y="382"/>
      <point x="102" y="399"/>
      <point x="131" y="415" type="curve"/>
      <point x="147" y="410" type="line"/>
      <point x="146" y="385"/>
      <point x="147" y="344"/>
      <point x="146" y="324" type="curve"/>
      <point x="140" y="197"/>
      <point x="146" y="-1"/>
      <point x="145" y="-102" type="curve"/>
      <point x="144" y="-173"/>
      <point x="143" y="-173"/>
      <point x="223" y="-177" type="curve"/>
      <point x="223" y="-205" type="line"/>
      <point x="136" y="-204"/>
      <point x="61" y="-203"/>
      <point x="20" y="-205" type="curve"/>
      <point x="20" y="-177" type="line"/>
      <point x="65" y="-174"/>
      <point x="61" y="-174"/>
    </contour>
    <contour>
      <point x="217" y="0" type="move" name="bottom"/>
    </contour>
    <contour>
      <point x="217" y="390" type="move" name="top"/>
    </contour>
  </outline>
</glyph>
<glyph name="q" format="1">
  <advance width="430"/>
  <unicode hex="0071"/>
  <outline>
    <contour>
      <point x="351" y="368" type="curve"/>
      <point x="306" y="282" type="line"/>
      <point x="281" y="314"/>
      <point x="240" y="330"/>
      <point x="190" y="330" type="curve"/>
      <point x="127" y="330"/>
      <point x="70" y="289"/>
      <point x="72" y="202" type="curve"/>
      <point x="74" y="111"/>
      <point x="145" y="67"/>
      <point x="209" y="67" type="curve"/>
      <point x="247" y="67"/>
      <point x="265" y="78"/>
      <point x="293" y="101" type="curve"/>
      <point x="315" y="84" type="line"/>
      <point x="269" y="49"/>
      <point x="219" y="10"/>
      <point x="179" y="-10" type="curve"/>
      <point x="93" y="-10"/>
      <point x="19" y="52"/>
      <point x="20" y="173" type="curve"/>
      <point x="21" y="291"/>
      <point x="98" y="399"/>
      <point x="222" y="399" type="curve"/>
      <point x="262" y="399"/>
      <point x="306" y="391"/>
    </contour>
    <contour>
      <point x="365" y="286" type="curve"/>
      <point x="369" y="-93" type="line" smooth="yes"/>
      <point x="370" y="-155"/>
      <point x="365" y="-155"/>
      <point x="420" y="-162" type="curve"/>
      <point x="420" y="-187" type="line"/>
      <point x="369" y="-191"/>
      <point x="293" y="-199"/>
      <point x="226" y="-205" type="curve"/>
      <point x="226" y="-180" type="line"/>
      <point x="286" y="-163"/>
      <point x="286" y="-163"/>
      <point x="285" y="-92" type="curve"/>
      <point x="284" y="9"/>
      <point x="300" y="210"/>
      <point x="294" y="336" type="curve"/>
      <point x="301" y="356"/>
      <point x="334" y="381"/>
      <point x="355" y="406" type="curve"/>
      <point x="371" y="399" type="line"/>
      <point x="364" y="358"/>
      <point x="365" y="330"/>
    </contour>
    <contour>
      <point x="214" y="0" type="move" name="bottom"/>
    </contour>
    <contour>
      <point x="214" y="390" type="move" name="top"/>
    </contour>
  </outline>
</glyph>
<glyph name="r" format="1">
  <advance width="291"/>
  <unicode hex="0072"/>
  <outline>
    <contour>
      <point x="131" y="240" type="curve"/>
      <point x="117" y="255" type="line"/>
      <point x="122" y="269"/>
      <point x="219" y="383"/>
      <point x="235" y="401" type="curve"/>
      <point x="301" y="378" type="line"/>
      <point x="292" y="355"/>
      <point x="277" y="311"/>
      <point x="266" y="291" type="curve"/>
      <point x="255" y="293"/>
      <point x="234" y="306"/>
      <point x="212" y="306" type="curve"/>
      <point x="191" y="306"/>
      <point x="147" y="256"/>
    </contour>
    <contour>
      <point x="58" y="96" type="curve"/>
      <point x="58" y="294" type="line"/>
      <point x="58" y="338"/>
      <point x="34" y="335"/>
      <point x="11" y="349" type="curve"/>
      <point x="10" y="368" type="line"/>
      <point x="51" y="376"/>
      <point x="77" y="382"/>
      <point x="119" y="415" type="curve"/>
      <point x="135" y="407" type="line"/>
      <point x="137" y="354"/>
      <point x="138" y="307"/>
      <point x="142" y="264" type="curve"/>
      <point x="142" y="106" type="line" smooth="yes"/>
      <point x="142" y="35"/>
      <point x="151" y="35"/>
      <point x="211" y="18" type="curve"/>
      <point x="211" y="-6" type="line"/>
      <point x="154" y="2"/>
      <point x="69" y="1"/>
      <point x="17" y="-6" type="curve"/>
      <point x="17" y="18" type="line"/>
      <point x="62" y="34"/>
      <point x="58" y="34"/>
    </contour>
    <contour>
      <point x="146" y="0" type="move" name="bottom"/>
    </contour>
    <contour>
      <point x="146" y="390" type="move" name="top"/>
    </contour>
  </outline>
</glyph>
<glyph name="s" format="1">
  <advance width="356"/>
  <unicode hex="0073"/>
  <outline>
    <contour>
      <point x="334" y="409" type="curve"/>
      <point x="317" y="420" type="line"/>
      <point x="297" y="405"/>
      <point x="281" y="388"/>
      <point x="252" y="388" type="curve"/>
      <point x="235" y="388"/>
      <point x="206" y="401"/>
      <point x="172" y="401" type="curve"/>
      <point x="78" y="401"/>
      <point x="31" y="340"/>
      <point x="31" y="275" type="curve"/>
      <point x="31" y="209"/>
      <point x="63" y="167"/>
      <point x="152" y="160" type="curve"/>
      <point x="251" y="152"/>
      <point x="277" y="124"/>
      <point x="277" y="88" type="curve"/>
      <point x="277" y="50"/>
      <point x="244" y="26"/>
      <point x="205" y="26" type="curve"/>
      <point x="135" y="26"/>
      <point x="88" y="64"/>
      <point x="53" y="140" type="curve"/>
      <point x="33" y="137" type="line"/>
      <point x="39" y="105"/>
      <point x="34" y="33"/>
      <point x="20" y="-7" type="curve"/>
      <point x="40" y="-13" type="line"/>
      <point x="47" y="-4"/>
      <point x="58" y="14"/>
      <point x="76" y="14" type="curve"/>
      <point x="106" y="14"/>
      <point x="141" y="-8"/>
      <point x="215" y="-8" type="curve"/>
      <point x="278" y="-8"/>
      <point x="336" y="38"/>
      <point x="336" y="111" type="curve"/>
      <point x="336" y="185"/>
      <point x="300" y="223"/>
      <point x="197" y="236" type="curve"/>
      <point x="111" y="247"/>
      <point x="80" y="255"/>
      <point x="80" y="298" type="curve"/>
      <point x="80" y="334"/>
      <point x="111" y="360"/>
      <point x="160" y="360" type="curve"/>
      <point x="217" y="360"/>
      <point x="255" y="334"/>
      <point x="301" y="245" type="curve"/>
      <point x="319" y="252" type="line"/>
      <point x="304" y="303"/>
      <point x="302" y="354"/>
    </contour>
    <contour>
      <point x="178" y="0" type="move" name="bottom"/>
    </contour>
    <contour>
      <point x="178" y="390" type="move" name="top"/>
    </contour>
  </outline>
</glyph>
<glyph name="t" format="1">
  <advance width="246"/>
  <unicode hex="0074"/>
  <outline>
    <contour>
      <point x="222" y="32" type="curve"/>
      <point x="218" y="56" type="line"/>
      <point x="136" y="56"/>
      <point x="135" y="97"/>
      <point x="134" y="225" type="curve"/>
      <point x="133" y="352"/>
      <point x="137" y="444"/>
      <point x="155" y="535" type="curve"/>
      <point x="126" y="540" type="line"/>
      <point x="111" y="481"/>
      <point x="79" y="467"/>
      <point x="43" y="465" type="curve"/>
      <point x="40" y="444" type="line"/>
      <point x="52" y="435"/>
      <point x="56" y="400"/>
      <point x="55" y="368" type="curve"/>
      <point x="49" y="59" type="line"/>
      <point x="60" y="27"/>
      <point x="89" y="1"/>
      <point x="139" y="-9" type="curve"/>
      <point x="165" y="-1"/>
      <point x="202" y="20"/>
    </contour>
    <contour>
      <point x="53" y="336" type="curve"/>
      <point x="225" y="336" type="line"/>
      <point x="226" y="390" type="line"/>
      <point x="10" y="390" type="line"/>
      <point x="11" y="370" type="line"/>
      <point x="33" y="359"/>
      <point x="47" y="347"/>
    </contour>
    <contour>
      <point x="117" y="0" type="move" name="bottom"/>
    </contour>
    <contour>
      <point x="117" y="195" type="move" name="center"/>
    </contour>
    <contour>
      <point x="117" y="390" type="move" name="top"/>
    </contour>
    <contour>
      <point x="226" y="390" type="move" name="topright"/>
    </contour>
  </outline>
</glyph>
<glyph name="u" format="1">
  <advance width="430"/>
  <unicode hex="0075"/>
  <outline>
    <contour>
      <point x="306" y="102" type="curve"/>
      <point x="303" y="59" type="line"/>
      <point x="252" y="40"/>
      <point x="223" y="24"/>
      <point x="175" y="-8" type="curve"/>
      <point x="122" y="-8"/>
      <point x="53" y="39"/>
      <point x="42" y="70" type="curve"/>
      <point x="42" y="118"/>
      <point x="44" y="233"/>
      <point x="41" y="305" type="curve"/>
      <point x="39" y="354"/>
      <point x="37" y="357"/>
      <point x="10" y="372" type="curve"/>
      <point x="10" y="398" type="line"/>
      <point x="61" y="391"/>
      <point x="112" y="394"/>
      <point x="145" y="398" type="curve"/>
      <point x="145" y="372" type="line"/>
      <point x="127" y="354"/>
      <point x="126" y="355"/>
      <point x="126" y="305" type="curve"/>
      <point x="125" y="153" type="line" smooth="yes"/>
      <point x="125" y="86"/>
      <point x="161" y="66"/>
      <point x="209" y="66" type="curve"/>
      <point x="239" y="66"/>
      <point x="284" y="83"/>
    </contour>
    <contour>
      <point x="372" y="120" type="curve"/>
      <point x="373" y="66"/>
      <point x="396" y="60"/>
      <point x="419" y="46" type="curve"/>
      <point x="420" y="24" type="line"/>
      <point x="380" y="14"/>
      <point x="347" y="4"/>
      <point x="308" y="-11" type="curve"/>
      <point x="295" y="-1" type="line"/>
      <point x="292" y="26"/>
      <point x="288" y="50"/>
      <point x="287" y="74" type="curve"/>
      <point x="290" y="120"/>
      <point x="288" y="178"/>
      <point x="288" y="282" type="curve"/>
      <point x="288" y="353"/>
      <point x="289" y="353"/>
      <point x="239" y="370" type="curve"/>
      <point x="239" y="398" type="line"/>
      <point x="296" y="392"/>
      <point x="335" y="393"/>
      <point x="380" y="397" type="curve"/>
      <point x="373" y="305"/>
      <point x="371" y="212"/>
    </contour>
    <contour>
      <point x="440" y="10" type="move" name="ogonek"/>
    </contour>
    <contour>
      <point x="229" y="390" type="move" name="top"/>
    </contour>
    <contour>
      <point x="473" y="390" type="move" name="topright"/>
    </contour>
  </outline>
</glyph>
<glyph name="v" format="1">
  <advance width="438"/>
  <unicode hex="0076"/>
  <outline>
    <contour>
      <point x="227" y="-10" type="curve"/>
      <point x="203" y="-10" type="line"/>
      <point x="176" y="54"/>
      <point x="34" y="350"/>
      <point x="5" y="374" type="curve"/>
      <point x="5" y="399" type="line"/>
      <point x="72" y="396"/>
      <point x="128" y="397"/>
      <point x="185" y="399" type="curve"/>
      <point x="185" y="375" type="line"/>
      <point x="141" y="358"/>
      <point x="134" y="344"/>
      <point x="152" y="302" type="curve"/>
      <point x="239" y="105" type="line"/>
      <point x="271" y="161"/>
      <point x="298" y="220"/>
      <point x="323" y="279" type="curve"/>
      <point x="345" y="331"/>
      <point x="328" y="351"/>
      <point x="281" y="376" type="curve"/>
      <point x="281" y="400" type="line"/>
      <point x="320" y="397"/>
      <point x="374" y="397"/>
      <point x="433" y="400" type="curve"/>
      <point x="433" y="375" type="line"/>
      <point x="413" y="364"/>
      <point x="235" y="30"/>
    </contour>
    <contour>
      <point x="219" y="0" type="move" name="bottom"/>
    </contour>
    <contour>
      <point x="219" y="390" type="move" name="top"/>
    </contour>
  </outline>
</glyph>
<glyph name="w" format="1">
  <advance width="631"/>
  <unicode hex="0077"/>
  <outline>
    <contour>
      <point x="216" y="-10" type="curve"/>
      <point x="193" y="-10" type="line"/>
      <point x="167" y="54"/>
      <point x="33" y="350"/>
      <point x="5" y="374" type="curve"/>
      <point x="5" y="399" type="line"/>
      <point x="69" y="396"/>
      <point x="117" y="397"/>
      <point x="172" y="399" type="curve"/>
      <point x="172" y="375" type="line"/>
      <point x="130" y="358"/>
      <point x="122" y="344"/>
      <point x="140" y="302" type="curve"/>
      <point x="226" y="103" type="line"/>
      <point x="256" y="160"/>
      <point x="279" y="219"/>
      <point x="304" y="279" type="curve"/>
      <point x="325" y="331"/>
      <point x="308" y="351"/>
      <point x="263" y="376" type="curve"/>
      <point x="263" y="400" type="line"/>
      <point x="300" y="397"/>
      <point x="356" y="397"/>
      <point x="412" y="400" type="curve"/>
      <point x="412" y="375" type="line"/>
      <point x="393" y="364"/>
      <point x="224" y="30"/>
    </contour>
    <contour>
      <point x="430" y="-10" type="curve"/>
      <point x="408" y="-10" type="line"/>
      <point x="382" y="54"/>
      <point x="322" y="192"/>
      <point x="295" y="216" type="curve"/>
      <point x="348" y="295" type="line"/>
      <point x="439" y="100" type="line"/>
      <point x="470" y="158"/>
      <point x="493" y="219"/>
      <point x="518" y="279" type="curve"/>
      <point x="540" y="331"/>
      <point x="521" y="351"/>
      <point x="477" y="376" type="curve"/>
      <point x="477" y="400" type="line"/>
      <point x="514" y="397"/>
      <point x="570" y="397"/>
      <point x="626" y="400" type="curve"/>
      <point x="626" y="375" type="line"/>
      <point x="607" y="364"/>
      <point x="438" y="30"/>
    </contour>
    <contour>
      <point x="316" y="0" type="move" name="bottom"/>
    </contour>
    <contour>
      <point x="316" y="390" type="move" name="top"/>
    </contour>
  </outline>
</glyph>
<glyph name="x" format="1">
  <advance width="413"/>
  <unicode hex="0078"/>
  <outline>
    <contour>
      <point x="216" y="195" type="curve"/>
      <point x="194" y="222" type="line"/>
      <point x="253" y="274"/>
      <point x="349" y="319"/>
      <point x="261" y="376" type="curve"/>
      <point x="261" y="400" type="line"/>
      <point x="305" y="398"/>
      <point x="349" y="398"/>
      <point x="395" y="400" type="curve"/>
      <point x="395" y="376" type="line"/>
      <point x="356" y="316"/>
      <point x="279" y="247"/>
    </contour>
    <contour>
      <point x="163" y="212" type="curve"/>
      <point x="185" y="186" type="line"/>
      <point x="103" y="136"/>
      <point x="73" y="50"/>
      <point x="155" y="23" type="curve"/>
      <point x="155" y="-2" type="line"/>
      <point x="105" y="1"/>
      <point x="54" y="0"/>
      <point x="14" y="-2" type="curve"/>
      <point x="18" y="86"/>
      <point x="90" y="163"/>
    </contour>
    <contour>
      <point x="187" y="400" type="curve"/>
      <point x="187" y="376" type="line"/>
      <point x="157" y="359"/>
      <point x="172" y="328"/>
      <point x="249" y="215" type="curve"/>
      <point x="310" y="125"/>
      <point x="345" y="80"/>
      <point x="400" y="19" type="curve"/>
      <point x="400" y="-5" type="line"/>
      <point x="340" y="-2"/>
      <point x="283" y="-1"/>
      <point x="229" y="-5" type="curve"/>
      <point x="229" y="19" type="line"/>
      <point x="274" y="52"/>
      <point x="257" y="65"/>
      <point x="167" y="197" type="curve"/>
      <point x="123" y="261"/>
      <point x="64" y="359"/>
      <point x="21" y="372" type="curve"/>
      <point x="20" y="400" type="line"/>
      <point x="81" y="396"/>
      <point x="130" y="397"/>
    </contour>
    <contour>
      <point x="207" y="0" type="move" name="bottom"/>
    </contour>
    <contour>
      <point x="207" y="390" type="move" name="top"/>
    </contour>
  </outline>
</glyph>
<glyph name="y" format="1">
  <advance width="428"/>
  <unicode hex="0079"/>
  <outline>
    <contour>
      <point x="114" y="-199" type="line"/>
      <point x="114" y="-80" type="line"/>
      <point x="172" y="-35"/>
      <point x="287" y="184"/>
      <point x="318" y="279" type="curve"/>
      <point x="335" y="331"/>
      <point x="318" y="351"/>
      <point x="271" y="376" type="curve"/>
      <point x="271" y="400" type="line"/>
      <point x="310" y="397"/>
      <point x="364" y="397"/>
      <point x="423" y="400" type="curve"/>
      <point x="423" y="375" type="line"/>
      <point x="381" y="308"/>
      <point x="340" y="219"/>
      <point x="265" y="77" type="curve"/>
      <point x="215" y="-17"/>
      <point x="148" y="-117"/>
      <point x="144" y="-199" type="curve"/>
    </contour>
    <contour>
      <point x="162" y="302" type="curve"/>
      <point x="240" y="83" type="line"/>
      <point x="198" y="4" type="line"/>
      <point x="161" y="89"/>
      <point x="52" y="351"/>
      <point x="25" y="374" type="curve"/>
      <point x="25" y="399" type="line"/>
      <point x="92" y="396"/>
      <point x="138" y="397"/>
      <point x="195" y="399" type="curve"/>
      <point x="195" y="375" type="line"/>
      <point x="151" y="358"/>
      <point x="146" y="346"/>
    </contour>
    <contour>
      <point x="214" y="0" type="move" name="bottom"/>
    </contour>
    <contour>
      <point x="214" y="390" type="move" name="top"/>
    </contour>
  </outline>
</glyph>
<glyph name="z" format="1">
  <advance width="390"/>
  <unicode hex="007A"/>
  <outline>
    <contour>
      <point x="53" y="-3" type="curve"/>
      <point x="44" y="17" type="line"/>
      <point x="226" y="355" type="line"/>
      <point x="124" y="350" type="line" smooth="yes"/>
      <point x="83" y="348"/>
      <point x="68" y="325"/>
      <point x="53" y="279" type="curve"/>
      <point x="26" y="279" type="line"/>
      <point x="26" y="390" type="line"/>
      <point x="138" y="387"/>
      <point x="252" y="391"/>
      <point x="326" y="390" type="curve"/>
      <point x="331" y="372" type="line"/>
      <point x="274" y="280"/>
      <point x="211" y="152"/>
      <point x="154" y="40" type="curve"/>
      <point x="223" y="43" type="line" smooth="yes"/>
      <point x="260" y="45"/>
      <point x="294" y="41"/>
      <point x="327" y="117" type="curve"/>
      <point x="352" y="117" type="line"/>
      <point x="350" y="0" type="line"/>
      <point x="240" y="0"/>
      <point x="163" y="4"/>
    </contour>
    <contour>
      <point x="195" y="0" type="move" name="bottom"/>
    </contour>
    <contour>
      <point x="195" y="390" type="move" name="top"/>
    </contour>
  </outline>
</glyph>
<glyph name="section" format="1">
  <advance width="465"/>
  <unicode hex="00A7"/>
  <outline>
    <contour>
      <point x="40" y="308" type="curve"/>
      <point x="40" y="186"/>
      <point x="202" y="83"/>
      <point x="202" y="-38" type="curve"/>
      <point x="202" y="-86"/>
      <point x="167" y="-128"/>
      <point x="98" y="-171" type="curve"/>
      <point x="114" y="-196" type="line"/>
      <point x="334" y="-77"/>
      <point x="425" y="32"/>
      <point x="425" y="92" type="curve"/>
      <point x="425" y="197"/>
      <point x="197" y="415"/>
      <point x="225" y="486" type="curve"/>
      <point x="322" y="451" type="line"/>
      <point x="344" y="484"/>
      <point x="367" y="518"/>
      <point x="384" y="539" type="curve"/>
      <point x="370" y="551" type="line"/>
      <point x="323" y="518"/>
      <point x="301" y="531"/>
      <point x="233" y="552" type="curve"/>
      <point x="158" y="517"/>
      <point x="40" y="442"/>
    </contour>
    <contour>
      <point x="114" y="377" type="curve"/>
      <point x="114" y="420"/>
      <point x="125" y="434"/>
      <point x="157" y="479" type="curve"/>
      <point x="139" y="472" type="line"/>
      <point x="131" y="349"/>
      <point x="334" y="211"/>
      <point x="334" y="84" type="curve"/>
      <point x="334" y="17"/>
      <point x="308" y="-38"/>
      <point x="256" y="-78" type="curve"/>
      <point x="263" y="-94" type="line"/>
      <point x="280" y="-67"/>
      <point x="288" y="-52"/>
      <point x="288" y="-19" type="curve"/>
      <point x="288" y="106"/>
      <point x="114" y="245"/>
    </contour>
  </outline>
</glyph>
<glyph name="a_macr" format="1">
  <advance width="347"/>
  <unicode hex="0101"/>
  <outline>
    <contour>
      <point x="99" y="591" type="curve"/>
      <point x="80" y="590" type="line"/>
      <point x="75" y="564"/>
      <point x="67" y="537"/>
      <point x="58" y="511" type="curve"/>
      <point x="125" y="506"/>
      <point x="221" y="493"/>
      <point x="276" y="483" type="curve"/>
      <point x="297" y="533" type="line"/>
      <point x="165" y="549"/>
      <point x="112" y="566"/>
    </contour>
    <component base="a"/>
    <contour>
      <point x="167" y="390" type="move" name="_top"/>
    </contour>
    <contour>
      <point x="168" y="0" type="move" name="bottom"/>
    </contour>
    <contour>
      <point x="302" y="10" type="move" name="ogonek"/>
    </contour>
    <contour>
      <point x="168" y="390" type="move" name="top"/>
    </contour>
  </outline>
</glyph>
<glyph name="e_macr" format="1">
  <advance width="301"/>
  <unicode hex="0113"/>
  <outline>
    <contour>
      <point x="64" y="539" type="curve"/>
      <point x="21" y="467" type="line"/>
      <point x="49" y="462" type="line"/>
      <point x="64" y="485"/>
      <point x="195" y="485"/>
      <point x="242" y="481" type="curve"/>
      <point x="279" y="559" type="line"/>
      <point x="253" y="563" type="line"/>
      <point x="229" y="542"/>
      <point x="118" y="541"/>
    </contour>
    <component base="e"/>
    <contour>
      <point x="155" y="390" type="move" name="_top"/>
    </contour>
    <contour>
      <point x="151" y="0" type="move" name="bottom"/>
    </contour>
    <contour>
      <point x="271" y="10" type="move" name="ogonek"/>
    </contour>
    <contour>
      <point x="151" y="390" type="move" name="top"/>
    </contour>
  </outline>
</glyph>
<glyph name="i_macr" format="1">
  <advance width="223"/>
  <unicode hex="012B"/>
  <outline>
    <contour>
      <point x="72" y="96" type="curve"/>
      <point x="72" y="294" type="line"/>
      <point x="72" y="338"/>
      <point x="48" y="335"/>
      <point x="25" y="349" type="curve"/>
      <point x="24" y="368" type="line"/>
      <point x="65" y="376"/>
      <point x="105" y="386"/>
      <point x="147" y="419" type="curve"/>
      <point x="167" y="408" type="line"/>
      <point x="150" y="297"/>
      <point x="158" y="236"/>
      <point x="156" y="106" type="curve"/>
      <point x="155" y="35"/>
      <point x="155" y="35"/>
      <point x="205" y="18" type="curve"/>
      <point x="205" y="-6" type="line"/>
      <point x="148" y="0"/>
      <point x="72" y="1"/>
      <point x="31" y="-6" type="curve"/>
      <point x="31" y="18" type="line"/>
      <point x="76" y="34"/>
      <point x="72" y="34"/>
    </contour>
    <contour>
      <point x="59" y="592" type="curve"/>
      <point x="10" y="521" type="line"/>
      <point x="32" y="515" type="line"/>
      <point x="44" y="534"/>
      <point x="137" y="527"/>
      <point x="173" y="527" type="curve"/>
      <point x="213" y="594" type="line"/>
      <point x="193" y="599" type="line"/>
      <point x="164" y="589"/>
      <point x="101" y="592"/>
    </contour>
    <contour>
      <point x="108.889" y="420" type="move" name="_top"/>
    </contour>
    <contour>
      <point x="120" y="0" type="move" name="bottom"/>
    </contour>
    <contour>
      <point x="109.671" y="720" type="move" name="top"/>
    </contour>
  </outline>
</glyph>
<glyph name="u_macr" format="1">
  <advance width="430"/>
  <unicode hex="016B"/>
  <outline>
    <contour>
      <point x="120" y="559" type="curve"/>
      <point x="75" y="491" type="line"/>
      <point x="103" y="485" type="line"/>
      <point x="119" y="508"/>
      <point x="269" y="497"/>
      <point x="316" y="497" type="curve"/>
      <point x="376" y="572" type="line"/>
      <point x="351" y="577" type="line"/>
      <point x="313" y="555"/>
      <point x="174" y="559"/>
    </contour>
    <component base="u"/>
    <contour>
      <point x="202" y="390" type="move" name="_top"/>
    </contour>
    <contour>
      <point x="215" y="0" type="move" name="bottom"/>
    </contour>
    <contour>
      <point x="387" y="10" type="move" name="ogonek"/>
    </contour>
    <contour>
      <point x="215" y="390" type="move" name="top"/>
    </contour>
    <contour>
      <point x="410" y="390" type="move" name="topright"/>
    </contour>
  </outline>
</glyph>
<glyph name="longs" format="1">
  <advance width="270"/>
  <unicode hex="017F"/>
  <outline>
    <contour>
      <point x="152" y="627" type="curve"/>
      <point x="153" y="109" type="line" smooth="yes"/>
      <point x="153" y="38"/>
      <point x="152" y="38"/>
      <point x="202" y="21" type="curve"/>
      <point x="202" y="-6" type="line"/>
      <point x="145" y="0"/>
      <point x="73" y="1"/>
      <point x="25" y="-6" type="curve"/>
      <point x="25" y="21" type="line"/>
      <point x="67" y="37"/>
      <point x="68" y="37"/>
      <point x="68" y="108" type="curve"/>
      <point x="67" y="598" type="line"/>
      <point x="108" y="634"/>
      <point x="147" y="672"/>
      <point x="190" y="711" type="curve"/>
      <point x="228" y="695"/>
      <point x="282" y="683"/>
      <point x="307" y="670" type="curve"/>
      <point x="307" y="660" type="line"/>
      <point x="247" y="598" type="line"/>
      <point x="207" y="619"/>
      <point x="175" y="627"/>
    </contour>
    <contour>
      <point x="76" y="346" type="line"/>
      <point x="36" y="371" type="line"/>
      <point x="36" y="384" type="line"/>
      <point x="72" y="410" type="line"/>
    </contour>
    <contour>
      <point x="135" y="0" type="move" name="bottom"/>
    </contour>
  </outline>
</glyph>
<glyph name="con" format="1">
  <advance width="371"/>
  <unicode hex="A76F"/>
  <outline>
    <contour>
      <point x="88" y="257" type="curve"/>
      <point x="74" y="257" type="line"/>
      <point x="5" y="321" type="line"/>
      <point x="47" y="362"/>
      <point x="109" y="403"/>
      <point x="161" y="403" type="curve"/>
      <point x="243" y="403"/>
      <point x="351" y="321"/>
      <point x="351" y="186" type="curve"/>
      <point x="351" y="71"/>
      <point x="274" y="-8"/>
      <point x="180" y="-8" type="curve"/>
      <point x="116" y="-8"/>
      <point x="67" y="16"/>
      <point x="24" y="69" type="curve"/>
      <point x="86" y="102" type="line"/>
      <point x="117" y="65"/>
      <point x="132" y="39"/>
      <point x="183" y="39" type="curve"/>
      <point x="225" y="39"/>
      <point x="267" y="102"/>
      <point x="267" y="194" type="curve"/>
      <point x="267" y="256"/>
      <point x="232" y="356"/>
      <point x="159" y="356" type="curve"/>
      <point x="118" y="356"/>
      <point x="98" y="293"/>
    </contour>
  </outline>
</glyph>
<glyph name="Q_strok" format="1">
  <advance width="990"/>
  <outline>
    <contour>
      <point x="388" y="-10" type="move"/>
    </contour>
    <contour>
      <point x="535" y="47" type="curve"/>
      <point x="389" y="-10" type="line"/>
      <point x="560" y="-10"/>
      <point x="649" y="53"/>
      <point x="751" y="53" type="curve"/>
      <point x="823" y="53"/>
      <point x="829" y="-9"/>
      <point x="896" y="-9" type="curve"/>
      <point x="928" y="-9"/>
      <point x="952" y="27"/>
      <point x="958" y="50" type="curve"/>
      <point x="941" y="56" type="line"/>
      <point x="922" y="26"/>
      <point x="899" y="21"/>
      <point x="899" y="46" type="curve"/>
      <point x="899" y="79"/>
      <point x="899" y="125"/>
      <point x="825" y="125" type="curve"/>
      <point x="750" y="125"/>
      <point x="678" y="52"/>
    </contour>
    <contour>
      <point x="808" y="382" type="line"/>
      <point x="825" y="361" type="line"/>
      <point x="851" y="371"/>
      <point x="871" y="373"/>
      <point x="897" y="363" type="curve"/>
      <point x="870" y="268"/>
      <point x="791" y="124"/>
      <point x="665" y="-9" type="curve"/>
      <point x="702" y="-13" type="line"/>
      <point x="825" y="130"/>
      <point x="875" y="228"/>
      <point x="962" y="367" type="curve"/>
      <point x="890" y="428" type="line"/>
    </contour>
    <component base="O"/>
  </outline>
</glyph>
<glyph name="d.ss01" format="1">
  <advance width="411"/>
  <outline>
    <contour>
      <point x="161" y="605" type="curve"/>
      <point x="144" y="624" type="line"/>
      <point x="97" y="588"/>
      <point x="25" y="531"/>
      <point x="25" y="522" type="curve"/>
      <point x="25" y="468"/>
      <point x="155" y="412"/>
      <point x="223" y="358" type="curve"/>
      <point x="267" y="323"/>
      <point x="299" y="276"/>
      <point x="299" y="213" type="curve"/>
      <point x="299" y="146"/>
      <point x="271" y="101"/>
      <point x="243" y="70" type="curve"/>
      <point x="167" y="95"/>
      <point x="124" y="163"/>
      <point x="124" y="227" type="curve"/>
      <point x="124" y="299"/>
      <point x="151" y="348"/>
      <point x="203" y="381" type="curve"/>
      <point x="185" y="407" type="line"/>
      <point x="48" y="298" type="line"/>
      <point x="34" y="270"/>
      <point x="39" y="170"/>
      <point x="57" y="111" type="curve"/>
      <point x="70" y="69"/>
      <point x="129" y="7"/>
      <point x="207" y="-8" type="curve"/>
      <point x="237" y="15"/>
      <point x="328" y="76"/>
      <point x="365" y="106" type="curve"/>
      <point x="385" y="139"/>
      <point x="394" y="278"/>
      <point x="377" y="333" type="curve"/>
      <point x="359" y="364"/>
      <point x="314" y="405"/>
      <point x="269" y="435" type="curve"/>
      <point x="204" y="478"/>
      <point x="122" y="534"/>
      <point x="122" y="551" type="curve"/>
      <point x="122" y="564"/>
      <point x="136" y="583"/>
    </contour>
    <contour>
      <point x="196" y="-3" type="move" name="bottom"/>
    </contour>
    <contour>
      <point x="193" y="195" type="move" name="center"/>
    </contour>
    <contour>
      <point x="193" y="700" type="move" name="top"/>
    </contour>
    <contour>
      <point x="359" y="390" type="move" name="topright"/>
    </contour>
  </outline>
</glyph>
<glyph name="etfin" format="1">
  <advance width="337"/>
  <outline>
    <contour>
      <point x="71" y="-116" type="curve"/>
      <point x="50" y="-126"/>
      <point x="30" y="-147"/>
      <point x="30" y="-169" type="curve"/>
      <point x="30" y="-195"/>
      <point x="54" y="-208"/>
      <point x="76" y="-208" type="curve"/>
      <point x="80" y="-200" type="line"/>
      <point x="71" y="-195"/>
      <point x="63" y="-183"/>
      <point x="63" y="-169" type="curve"/>
      <point x="63" y="-154"/>
      <point x="71" y="-144"/>
      <point x="101" y="-129" type="curve"/>
      <point x="202" y="-79"/>
      <point x="311" y="-27"/>
      <point x="311" y="58" type="curve"/>
      <point x="311" y="118"/>
      <point x="249" y="177"/>
      <point x="145" y="187" type="curve"/>
      <point x="127" y="128" type="line"/>
      <point x="204" y="229"/>
      <point x="253" y="249"/>
      <point x="317" y="322" type="curve"/>
      <point x="307" y="344" type="line"/>
      <point x="242" y="348"/>
      <point x="177" y="387"/>
      <point x="134" y="403" type="curve"/>
      <point x="20" y="320" type="line"/>
      <point x="34" y="303" type="line"/>
      <point x="86" y="330"/>
      <point x="140" y="300"/>
      <point x="212" y="280" type="curve"/>
      <point x="169" y="212"/>
      <point x="93" y="168"/>
      <point x="26" y="116" type="curve"/>
      <point x="41" y="90" type="line"/>
      <point x="145" y="150"/>
      <point x="232" y="89"/>
      <point x="232" y="31" type="curve"/>
      <point x="232" y="-17"/>
      <point x="194" y="-58"/>
    </contour>
    <contour>
      <point x="272" y="-5" type="move" name="bottom"/>
    </contour>
    <contour>
      <point x="272" y="385" type="move" name="top"/>
    </contour>
  </outline>
</glyph>
<glyph name="f_l" format="1">
  <advance width="514"/>
  <outline>
    <contour>
      <point x="356" y="97" type="curve"/>
      <point x="351" y="542" type="line"/>
      <point x="351" y="586"/>
      <point x="327" y="603"/>
      <point x="304" y="617" type="curve"/>
      <point x="303" y="636" type="line"/>
      <point x="344" y="652"/>
      <point x="395" y="678"/>
      <point x="437" y="711" type="curve"/>
      <point x="457" y="696" type="line"/>
      <point x="434" y="606"/>
      <point x="440" y="303"/>
      <point x="440" y="107" type="curve"/>
      <point x="440" y="36"/>
      <point x="439" y="36"/>
      <point x="489" y="19" type="curve"/>
      <point x="489" y="-6" type="line"/>
      <point x="432" y="0"/>
      <point x="356" y="1"/>
      <point x="315" y="-6" type="curve"/>
      <point x="315" y="19" type="line"/>
      <point x="360" y="35"/>
      <point x="357" y="35"/>
    </contour>
    <contour>
      <point x="322" y="402" type="line"/>
      <point x="353" y="421" type="line"/>
      <point x="354" y="363" type="line"/>
      <point x="346" y="376"/>
      <point x="334" y="385"/>
      <point x="323" y="391" type="curve"/>
    </contour>
    <contour>
      <point x="272" y="581" type="line"/>
      <point x="151" y="592" type="line"/>
      <point x="153" y="109" type="line" smooth="yes"/>
      <point x="153" y="38"/>
      <point x="152" y="38"/>
      <point x="222" y="21" type="curve"/>
      <point x="222" y="-6" type="line"/>
      <point x="145" y="0"/>
      <point x="73" y="1"/>
      <point x="5" y="-6" type="curve"/>
      <point x="5" y="21" type="line"/>
      <point x="67" y="37"/>
      <point x="69" y="37"/>
      <point x="68" y="108" type="curve"/>
      <point x="67" y="282"/>
      <point x="71" y="580"/>
      <point x="64" y="631" type="curve"/>
      <point x="74" y="639" type="line"/>
      <point x="112" y="634"/>
      <point x="231" y="639"/>
      <point x="271" y="657" type="curve"/>
      <point x="282" y="653" type="line"/>
    </contour>
    <contour>
      <point x="76" y="346" type="line"/>
      <point x="16" y="368" type="line"/>
      <point x="16" y="390" type="line"/>
      <point x="262" y="390" type="line"/>
      <point x="262" y="346" type="line"/>
    </contour>
    <contour>
      <point x="129" y="0" type="move" name="bottom_1"/>
    </contour>
    <contour>
      <point x="386" y="0" type="move" name="bottom_2"/>
    </contour>
    <contour>
      <point x="257" y="0" type="move" name="caret_1"/>
    </contour>
    <contour>
      <point x="129" y="700" type="move" name="top_1"/>
    </contour>
    <contour>
      <point x="386" y="700" type="move" name="top_2"/>
    </contour>
  </outline>
</glyph>
<glyph name="g.ss01" format="1">
  <advance width="443"/>
  <outline>
    <contour>
      <point x="34" y="-160" type="curve"/>
      <point x="-1" y="-98" type="line"/>
      <point x="9" y="-91"/>
      <point x="38" y="-76"/>
      <point x="52" y="-76" type="curve"/>
      <point x="100" y="-83"/>
      <point x="222" y="-94"/>
      <point x="320" y="-123" type="curve"/>
      <point x="340" y="-108"/>
      <point x="350" y="-82"/>
      <point x="350" y="-69" type="curve"/>
      <point x="350" y="-26"/>
      <point x="317" y="26"/>
      <point x="261" y="45" type="curve"/>
      <point x="237" y="45"/>
      <point x="162" y="12"/>
      <point x="138" y="4" type="curve"/>
      <point x="62" y="14"/>
      <point x="16" y="64"/>
      <point x="16" y="173" type="curve"/>
      <point x="16" y="237"/>
      <point x="33" y="288"/>
      <point x="52" y="311" type="curve"/>
      <point x="111" y="337"/>
      <point x="153" y="376"/>
      <point x="187" y="399" type="curve"/>
      <point x="198" y="393"/>
      <point x="240" y="372"/>
      <point x="276" y="350" type="curve"/>
      <point x="297" y="384" type="line"/>
      <point x="367" y="369"/>
      <point x="376" y="369"/>
      <point x="416" y="394" type="curve"/>
      <point x="434" y="386" type="line"/>
      <point x="409" y="349"/>
      <point x="400" y="323"/>
      <point x="391" y="296" type="curve"/>
      <point x="372" y="300"/>
      <point x="345" y="300"/>
      <point x="323" y="299" type="curve"/>
      <point x="329" y="255"/>
      <point x="342" y="195"/>
      <point x="342" y="157" type="curve"/>
      <point x="335" y="137"/>
      <point x="325" y="114"/>
      <point x="305" y="92" type="curve"/>
      <point x="399" y="57"/>
      <point x="434" y="-2"/>
      <point x="419" y="-94" type="curve"/>
      <point x="375" y="-134"/>
      <point x="330" y="-168"/>
      <point x="281" y="-200" type="curve"/>
      <point x="155" y="-147"/>
      <point x="77" y="-146"/>
    </contour>
    <contour>
      <point x="91" y="200" type="curve"/>
      <point x="91" y="94"/>
      <point x="141" y="43"/>
      <point x="240" y="70" type="curve"/>
      <point x="273" y="158"/>
      <point x="254" y="267"/>
      <point x="233" y="291" type="curve"/>
      <point x="205" y="309"/>
      <point x="168" y="318"/>
      <point x="131" y="313" type="curve"/>
      <point x="109" y="297"/>
      <point x="91" y="264"/>
    </contour>
    <contour>
      <point x="222" y="-200" type="move" name="bottom"/>
    </contour>
    <contour>
      <point x="222" y="390" type="move" name="top"/>
    </contour>
  </outline>
</glyph>
<glyph name="h.ss01" format="1">
  <advance width="438"/>
  <outline>
    <contour>
      <point x="146" y="281" type="curve"/>
      <point x="129" y="335" type="line"/>
      <point x="167" y="352"/>
      <point x="258" y="403"/>
      <point x="293" y="419" type="curve"/>
      <point x="368" y="375"/>
      <point x="416" y="321"/>
      <point x="413" y="207" type="curve"/>
      <point x="410" y="85"/>
      <point x="246" y="-107"/>
      <point x="221" y="-200" type="curve"/>
      <point x="199" y="-201" type="line"/>
      <point x="199" y="-133" type="line"/>
      <point x="265" y="-40"/>
      <point x="336" y="42"/>
      <point x="336" y="174" type="curve"/>
      <point x="336" y="274"/>
      <point x="287" y="341"/>
      <point x="233" y="341" type="curve"/>
      <point x="192" y="341"/>
      <point x="164" y="312"/>
    </contour>
    <contour>
      <point x="64" y="588" type="curve"/>
      <point x="63" y="626"/>
      <point x="63" y="626"/>
      <point x="29" y="613" type="curve"/>
      <point x="20" y="636" type="line"/>
      <point x="61" y="660"/>
      <point x="118" y="689"/>
      <point x="160" y="714" type="curve"/>
      <point x="175" y="695" type="line"/>
      <point x="155" y="672"/>
      <point x="155" y="662"/>
      <point x="153" y="629" type="curve"/>
      <point x="145" y="503"/>
      <point x="154" y="238"/>
      <point x="154" y="107" type="curve"/>
      <point x="154" y="36"/>
      <point x="153" y="36"/>
      <point x="203" y="19" type="curve"/>
      <point x="203" y="-6" type="line"/>
      <point x="146" y="0"/>
      <point x="70" y="1"/>
      <point x="29" y="-6" type="curve"/>
      <point x="29" y="19" type="line"/>
      <point x="74" y="35"/>
      <point x="70" y="35"/>
      <point x="70" y="97" type="curve"/>
      <point x="69" y="245"/>
      <point x="68" y="440"/>
    </contour>
    <contour>
      <point x="40" y="349" type="line"/>
      <point x="71" y="368" type="line"/>
      <point x="72" y="310" type="line"/>
      <point x="64" y="323"/>
      <point x="52" y="332"/>
      <point x="41" y="338" type="curve"/>
    </contour>
    <contour>
      <point x="216" y="0" type="move" name="bottom"/>
    </contour>
    <contour>
      <point x="216" y="350" type="move" name="center"/>
    </contour>
    <contour>
      <point x="216" y="700" type="move" name="top"/>
    </contour>
  </outline>
</glyph>
<glyph name="longs_t" format="1">
  <advance width="470"/>
  <outline>
    <component base="longs"/>
    <component base="t" xOffset="224"/>
    <contour>
      <point x="264.5" y="0" type="move" name="caret_1"/>
    </contour>
  </outline>
</glyph>
<glyph name="macr" format="1">
  <advance width="313"/>
  <outline>
    <contour>
      <point x="65" y="572" type="curve"/>
      <point x="20" y="491" type="line"/>
      <point x="48" y="485" type="line"/>
      <point x="64" y="508"/>
      <point x="194" y="497"/>
      <point x="241" y="497" type="curve"/>
      <point x="293" y="594" type="line"/>
      <point x="268" y="599" type="line"/>
      <point x="230" y="569"/>
      <point x="119" y="572"/>
    </contour>
    <contour>
      <point x="147" y="390" type="move" name="_top"/>
    </contour>
    <contour>
      <point x="148" y="690" type="move" name="top"/>
    </contour>
  </outline>
</glyph>
<glyph name="o_macr" format="1">
  <advance width="445"/>
  <outline>
    <contour>
      <point x="151" y="566" type="curve"/>
      <point x="105" y="495" type="line"/>
      <point x="133" y="489" type="line"/>
      <point x="149" y="512"/>
      <point x="307" y="497"/>
      <point x="354" y="497" type="curve"/>
      <point x="363" y="526"/>
      <point x="380" y="555"/>
      <point x="407" y="584" type="curve"/>
      <point x="382" y="589" type="line"/>
      <point x="344" y="559"/>
      <point x="205" y="566"/>
    </contour>
    <component base="o"/>
    <contour>
      <point x="232" y="390" type="move" name="_top"/>
    </contour>
    <contour>
      <point x="233" y="690" type="move" name="top"/>
    </contour>
  </outline>
</glyph>
<glyph name="q_etfin" format="1">
  <advance width="601"/>
  <outline>
    <contour>
      <point x="352" y="-125" type="curve"/>
      <point x="331" y="-101" type="line"/>
      <point x="433" y="-37"/>
      <point x="483" y="8"/>
      <point x="483" y="61" type="curve"/>
      <point x="483" y="98"/>
      <point x="455" y="161"/>
      <point x="346" y="94" type="curve"/>
      <point x="331" y="114" type="line"/>
      <point x="409" y="161"/>
      <point x="480" y="199"/>
      <point x="480" y="253" type="curve"/>
      <point x="480" y="291"/>
      <point x="452" y="306"/>
      <point x="427" y="306" type="curve"/>
      <point x="396" y="306"/>
      <point x="377" y="296"/>
      <point x="346" y="259" type="curve"/>
      <point x="341" y="303" type="line"/>
      <point x="455" y="406" type="line"/>
      <point x="520" y="380"/>
      <point x="550" y="307"/>
      <point x="550" y="281" type="curve"/>
      <point x="550" y="261"/>
      <point x="525" y="232"/>
      <point x="484" y="190" type="curve"/>
      <point x="543" y="173"/>
      <point x="563" y="120"/>
      <point x="563" y="92" type="curve"/>
      <point x="563" y="2"/>
      <point x="472" y="-50"/>
    </contour>
    <component base="q"/>
    <contour>
      <point x="100" y="0" type="move" name="bottom_1"/>
    </contour>
    <contour>
      <point x="300" y="0" type="move" name="bottom_2"/>
    </contour>
    <contour>
      <point x="500" y="0" type="move" name="bottom_3"/>
    </contour>
    <contour>
      <point x="200" y="0" type="move" name="caret_1"/>
    </contour>
    <contour>
      <point x="400" y="0" type="move" name="caret_2"/>
    </contour>
    <contour>
      <point x="100" y="390" type="move" name="top_1"/>
    </contour>
    <contour>
      <point x="300" y="390" type="move" name="top_2"/>
    </contour>
    <contour>
      <point x="500" y="390" type="move" name="top_3"/>
    </contour>
  </outline>
</glyph>
<glyph name="q_strok" format="1">
  <advance width="590"/>
  <outline>
    <contour>
      <point x="346" y="267" type="curve"/>
      <point x="341" y="303" type="line"/>
      <point x="454" y="400" type="line"/>
      <point x="533" y="375"/>
      <point x="570" y="335"/>
      <point x="570" y="252" type="curve"/>
      <point x="570" y="73"/>
      <point x="386" y="-10"/>
      <point x="153" y="-170" type="curve"/>
      <point x="153" y="-123" type="line"/>
      <point x="396" y="24"/>
      <point x="493" y="98"/>
      <point x="493" y="225" type="curve"/>
      <point x="493" y="296"/>
      <point x="425" y="351"/>
    </contour>
    <component base="q"/>
    <contour>
      <point x="216" y="0" type="move" name="bottom_1"/>
    </contour>
    <contour>
      <point x="649" y="0" type="move" name="bottom_2"/>
    </contour>
    <contour>
      <point x="432.5" y="0" type="move" name="caret_1"/>
    </contour>
    <contour>
      <point x="216" y="390" type="move" name="top_1"/>
    </contour>
    <contour>
      <point x="649" y="390" type="move" name="top_2"/>
    </contour>
  </outline>
</glyph>
<glyph name="q_strok_ra" format="1">
  <advance width="590"/>
  <outline>
    <contour>
      <point x="200" y="592" type="curve"/>
      <point x="120" y="516" type="line"/>
      <point x="139" y="498" type="line"/>
      <point x="178" y="533"/>
      <point x="224" y="495"/>
      <point x="260" y="460" type="curve"/>
      <point x="311" y="513" type="line" smooth="yes"/>
      <point x="345" y="548"/>
      <point x="381" y="490"/>
      <point x="420" y="452" type="curve"/>
      <point x="511" y="557" type="line"/>
      <point x="494" y="572" type="line"/>
      <point x="437" y="521"/>
      <point x="422" y="537"/>
      <point x="363" y="590" type="curve"/>
      <point x="290" y="523" type="line"/>
      <point x="254" y="543"/>
      <point x="239" y="559"/>
    </contour>
    <component base="q_strok"/>
    <contour>
      <point x="100" y="0" type="move" name="bottom_1"/>
    </contour>
    <contour>
      <point x="300" y="0" type="move" name="bottom_2"/>
    </contour>
    <contour>
      <point x="500" y="0" type="move" name="bottom_3"/>
    </contour>
    <contour>
      <point x="200" y="0" type="move" name="caret_1"/>
    </contour>
    <contour>
      <point x="400" y="0" type="move" name="caret_2"/>
    </contour>
    <contour>
      <point x="100" y="390" type="move" name="top_1"/>
    </contour>
    <contour>
      <point x="300" y="390" type="move" name="top_2"/>
    </contour>
    <contour>
      <point x="500" y="390" type="move" name="top_3"/>
    </contour>
  </outline>
</glyph>
<glyph name="q_tilde" format="1">
  <advance width="434"/>
  <outline>
    <contour>
      <point x="387" y="465" type="curve"/>
      <point x="454" y="573" type="line"/>
      <point x="433" y="585" type="line"/>
      <point x="375" y="509"/>
      <point x="361" y="567"/>
      <point x="325" y="602" type="curve"/>
      <point x="225" y="473" type="line"/>
      <point x="245" y="461" type="line"/>
      <point x="306" y="525" type="line"/>
      <point x="326" y="509"/>
      <point x="348" y="498"/>
    </contour>
    <component base="q"/>
  </outline>
</glyph>
